<svg xmlns="http://www.w3.org/2000/svg" width="512" height="512" viewBox="0 0 512 512">
  <defs>
    <linearGradient id="grad1" x1="0%" y1="0%" x2="100%" y2="100%">
      <stop offset="0%" style="stop-color:#1b309a;stop-opacity:1" />
      <stop offset="100%" style="stop-color:#7055c6;stop-opacity:1" />
    </linearGradient>
  </defs>
  <rect width="512" height="512" fill="none"/>
  <g fill="url(#grad1)">
    <path d="M432,48H80c-26.51,0-48,21.49-48,48V336c0,26.51,21.49,48,48,48h352c26.51,0,48-21.49,48-48V96C480,69.49,458.51,48,432,48z M432,336H80V96h352V336z"/>
    <path d="M384,416H128c-8.837,0-16-7.163-16-16s7.163-16,16-16h256c8.837,0,16,7.163,16,16S392.837,416,384,416z"/>
    <path d="M160,240c-17.673,0-32-14.327-32-32s14.327-32,32-32s32,14.327,32,32S177.673,240,160,240z"/>
    <path d="M256,240c-17.673,0-32-14.327-32-32s14.327-32,32-32s32,14.327,32,32S273.673,240,256,240z"/>
    <path d="M352,240c-17.673,0-32-14.327-32-32s14.327-32,32-32s32,14.327,32,32S369.673,240,352,240z"/>
  </g>
</svg> 