<svg xmlns="http://www.w3.org/2000/svg" enable-background="new 0 0 24 24" viewBox="0 0 24 24" id="group">
  <g id="_icons">
    <path d="M18 10c-.5527 0-1 .4473-1 1s.4473 1 1 1c2.2061 0 4-1.7939 4-4s-1.7939-4-4-4c-.1816 0-.457.0078-.7422.0801-.5361.1338-.8623.6768-.7275 1.2119.1338.5361.6748.8623 1.2119.7275C17.8223 6 17.9561 6 18 6c1.1025 0 2 .8975 2 2S19.1025 10 18 10zM15.6963 20.7666c.6152-.0791 1.1719-.418 1.5264-.9287.3555-.5137.4766-1.1582.333-1.7676-.002-.0049-.0029-.0098-.0039-.0146l-.0703-.2803c-.3389-1.4092-1.3086-2.5918-2.5938-3.1641v.001c-.0439-.0225-.0869-.042-.1133-.0527-1.793-.7422-3.7549-.7412-5.5518-.001-1.3438.5547-2.3555 1.7568-2.708 3.2197l-.0684.2852c-.1465.6104-.0264 1.2559.3291 1.7705.3545.5137.9111.8535 1.5293.9326C9.5234 20.9219 10.7656 21 11.998 21S14.4746 20.9219 15.6963 20.7666zM8.4219 18.6982c-.0244-.0342-.0488-.0918-.0303-.1709l.0674-.2842c.2021-.8379.7734-1.5244 1.5273-1.8359C10.6406 16.1367 11.3174 16 11.998 16c.6816 0 1.3574.1367 1.9463.3779.0127.0068.0449.0205.0723.0322.0186.0107.0381.0205.0586.0293.7207.3203 1.2666.9941 1.4639 1.8135l.0703.2812c.0166.0742-.0078.1309-.0312.1641-.0234.0342-.0654.0752-.1348.084-2.2754.2891-4.6162.2891-6.8857 0C8.4863 18.7734 8.4443 18.7314 8.4219 18.6982zM7.5 8.5c0 2.4814 2.0186 4.5 4.5 4.5s4.5-2.0186 4.5-4.5S14.4814 4 12 4 7.5 6.0186 7.5 8.5zM14.5 8.5c0 1.3789-1.1211 2.5-2.5 2.5S9.5 9.8789 9.5 8.5 10.6211 6 12 6 14.5 7.1211 14.5 8.5zM4.3516 18.957C4.3779 18.959 4.4043 18.96 4.4307 18.96c.5166 0 .9551-.3975.9961-.9219.043-.5508-.3682-1.0322-.9189-1.0752-.4961-.0381-.9824-.0693-1.5098-.0723l.0596-.2275c.1602-.6123.6133-1.1123 1.2236-1.3408C4.832 15.1084 5.4111 15 6 15c.1299 0 .251.0078.4092.0176.5391.0195 1.0107-.3867 1.0449-.9375.0332-.5518-.4004-1.0264-.9521-1.0605-.9951-.0605-2.0029.0742-2.9326.4336-1.208.4521-2.123 1.4639-2.4473 2.7061l-.0576.2217c-.1426.5312-.0449 1.0986.2666 1.5576.3311.4873.8652.8066 1.4609.875C3.3047 18.874 3.8281 18.916 4.3516 18.957zM19.6484 18.957c-.0264.002-.0527.0029-.0791.0029-.5166 0-.9551-.3975-.9961-.9219-.043-.5508.3682-1.0322.9189-1.0752.4961-.0381.9824-.0693 1.5098-.0723l-.0596-.2275c-.1602-.6123-.6133-1.1123-1.2236-1.3408C19.168 15.1084 18.5889 15 18 15c-.1299 0-.251.0078-.4092.0176-.5391.0195-1.0107-.3867-1.0449-.9375-.0332-.5518.4004-1.0264.9521-1.0605.9951-.0605 2.0029.0742 2.9326.4336 1.208.4521 2.123 1.4639 2.4473 2.7061l.0576.2217c.1426.5312.0449 1.0986-.2666 1.5576-.3311.4873-.8652.8066-1.4609.875C20.6953 18.874 20.1719 18.916 19.6484 18.957zM6 6c.0439 0 .1777 0 .2578.0195C6.7891 6.1533 7.3359 5.8281 7.4697 5.292c.1348-.5352-.1914-1.0781-.7275-1.2119C6.457 4.0078 6.1816 4 6 4 3.7939 4 2 5.7939 2 8s1.7939 4 4 4c.5527 0 1-.4473 1-1s-.4473-1-1-1c-1.1025 0-2-.8975-2-2S4.8975 6 6 6z"></path>
  </g>
</svg>
