<?xml version="1.0" standalone="no"?>
<!DOCTYPE svg PUBLIC "-//W3C//DTD SVG 20010904//EN"
 "http://www.w3.org/TR/2001/REC-SVG-20010904/DTD/svg10.dtd">
<svg version="1.0" xmlns="http://www.w3.org/2000/svg"
 width="512.000000pt" height="512.000000pt" viewBox="0 0 512.000000 512.000000"
 preserveAspectRatio="xMidYMid meet">

<g transform="translate(0.000000,512.000000) scale(0.100000,-0.100000)"
fill="#000000" stroke="none">
<path d="M1251 4632 c-74 -40 -91 -135 -35 -193 16 -17 39 -32 51 -35 23 -6
23 -8 23 -156 0 -140 -2 -155 -30 -234 -153 -433 109 -879 610 -1039 47 -15
90 -28 95 -30 6 -2 -107 -4 -250 -4 -343 -1 -398 -15 -517 -129 -56 -54 -118
-156 -118 -197 0 -11 -6 -15 -17 -11 -78 23 -186 46 -193 41 -6 -4 -10 -57
-10 -119 l0 -114 -82 24 c-130 38 -118 59 -118 -200 l0 -224 -129 -4 c-143 -3
-163 -11 -209 -78 l-22 -33 2 -386 3 -386 177 -3 177 -2 3 -138 3 -137 680
-187 680 -187 209 -1 209 0 494 155 494 155 50 -14 c28 -9 98 -21 156 -27 518
-58 1018 289 1150 800 64 249 35 518 -83 752 -174 348 -515 569 -905 586 -147
7 -256 -7 -379 -46 l-86 -28 -44 35 c-61 46 -125 77 -188 91 -31 6 -163 11
-320 12 l-267 0 78 24 c531 158 815 655 622 1090 -23 53 -25 69 -25 199 l0
141 34 19 c89 48 83 177 -11 221 -94 45 -198 -48 -171 -152 9 -33 59 -83 84
-83 11 0 14 -20 14 -99 l0 -99 -102 102 c-156 153 -319 240 -548 289 -133 29
-357 29 -490 0 -257 -55 -480 -187 -622 -366 l-38 -49 0 109 0 108 29 17 c41
23 64 62 64 108 0 47 -22 84 -66 110 -40 25 -73 25 -116 2z m112 -64 c40 -47
7 -118 -56 -118 -81 0 -98 110 -22 140 27 11 56 3 78 -22z m1852 2 c42 -46 10
-120 -52 -120 -62 0 -94 65 -57 118 20 29 83 31 109 2z m-714 -29 c676 -152
947 -811 520 -1264 -190 -201 -463 -310 -776 -310 -313 0 -586 109 -776 310
-445 472 -128 1161 589 1278 114 19 327 12 443 -14z m654 -1679 c55 -25 125
-71 125 -82 0 -3 -17 -14 -37 -24 -79 -38 -181 -114 -268 -202 l-90 -92 -230
-61 c-126 -34 -241 -66 -255 -72 -50 -21 -103 -65 -135 -111 -31 -46 -32 -47
-42 -25 -18 40 -64 87 -111 115 -32 18 -193 66 -517 153 -528 141 -485 120
-439 216 45 93 130 164 239 199 31 10 220 12 875 11 l835 -2 50 -23z m868 -66
c394 -118 674 -432 737 -829 20 -120 8 -320 -24 -432 -106 -362 -379 -630
-736 -721 -283 -73 -592 -18 -839 148 -81 55 -242 227 -293 313 -304 522 -119
1174 411 1444 180 91 275 112 496 107 137 -3 173 -7 248 -30z m-2568 -351
c281 -75 532 -142 558 -150 106 -31 165 -92 191 -197 l6 -28 -81 0 c-75 0
-121 12 -632 160 -304 89 -560 163 -569 166 -16 5 -18 19 -18 100 0 86 2 95
18 90 9 -3 247 -66 527 -141z m-100 -230 c351 -101 639 -186 641 -188 2 -2 3
-339 2 -749 l-3 -745 -642 176 -643 176 0 118 0 117 71 0 c96 0 142 15 199 67
67 60 85 111 85 238 0 127 -18 178 -85 238 -57 52 -103 67 -199 67 l-71 0 0
335 c0 184 2 335 4 335 2 0 290 -83 641 -185z m1452 119 c-17 -32 -43 -86 -57
-118 l-26 -59 -149 -43 c-119 -35 -164 -44 -227 -44 -74 0 -78 1 -78 23 1 40
36 102 84 144 39 35 63 46 159 72 233 64 322 87 324 86 2 -1 -12 -28 -30 -61z
m-111 -276 c-50 -250 -25 -494 73 -702 104 -223 304 -425 516 -522 33 -15 55
-29 50 -31 -100 -30 -792 -247 -822 -258 l-43 -14 0 748 0 748 103 31 c133 39
131 39 123 0z m-276 -788 l0 -750 -185 0 -185 0 0 750 0 750 185 0 185 0 0
-750z m-1770 575 l0 -115 -151 0 -151 0 3 84 c3 67 8 89 24 106 30 34 51 39
168 39 l107 1 0 -115z m257 -194 c24 -14 55 -42 70 -64 27 -39 28 -45 28 -162
0 -117 -1 -123 -28 -162 -15 -22 -46 -50 -70 -64 -41 -23 -48 -24 -299 -27
l-258 -3 0 256 0 256 258 -3 c251 -3 258 -4 299 -27z"/>
<path d="M2040 4316 c-168 -36 -311 -109 -426 -218 -90 -86 -130 -160 -143
-265 -17 -138 14 -269 92 -386 106 -157 283 -218 490 -168 105 25 221 27 357
6 122 -19 201 -19 273 0 170 44 285 157 327 320 34 135 23 282 -31 387 -65
128 -247 249 -464 309 -102 28 -373 36 -475 15z m465 -65 c44 -12 126 -44 183
-72 81 -39 117 -64 171 -117 83 -82 111 -145 118 -272 14 -247 -112 -421 -337
-462 -51 -10 -88 -9 -213 7 -193 25 -259 24 -377 -4 -169 -41 -300 -10 -403
94 -91 93 -132 214 -125 365 7 143 62 234 203 335 100 71 187 109 326 140 96
22 349 14 454 -14z"/>
<path d="M1835 3941 c-49 -22 -78 -62 -79 -110 -1 -30 3 -37 21 -39 18 -3 23
3 29 33 13 68 86 96 145 54 52 -36 81 -3 36 39 -21 20 -76 42 -102 42 -5 0
-28 -9 -50 -19z"/>
<path d="M2523 3941 c-42 -20 -64 -46 -56 -68 7 -19 38 -15 58 7 42 46 125 14
144 -56 11 -41 45 -40 49 1 8 88 -107 156 -195 116z"/>
<path d="M2374 3576 c-77 -81 -186 -84 -265 -5 -21 21 -45 39 -53 39 -24 0
-25 -26 -3 -57 41 -59 112 -93 193 -93 84 0 227 106 194 145 -18 21 -20 20
-66 -29z"/>
<path d="M3642 2454 c-57 -28 -89 -65 -98 -113 l-6 -31 -106 0 -105 0 -31 36
c-25 29 -38 36 -67 36 -44 0 -75 -15 -90 -43 -14 -27 -14 -88 0 -102 6 -6 11
-17 11 -24 0 -7 -45 -95 -99 -196 -99 -181 -99 -182 -91 -229 24 -128 109
-199 248 -206 123 -7 212 42 258 143 39 82 34 98 -76 302 -96 179 -99 186 -83
209 15 24 17 24 189 24 l174 0 0 -469 c0 -394 -2 -470 -14 -474 -8 -3 -20 -22
-27 -41 l-13 -36 -107 0 c-91 0 -110 -3 -132 -20 -36 -29 -52 -81 -35 -117
l13 -28 394 -3 c356 -2 396 -1 413 14 22 21 23 55 3 94 -27 51 -49 60 -161 60
l-102 0 -12 29 c-6 16 -20 37 -31 47 -18 16 -19 37 -19 481 l0 463 179 0 179
0 11 -28 c11 -25 4 -41 -80 -197 -50 -94 -95 -175 -100 -181 -14 -17 6 -108
33 -155 47 -80 125 -119 237 -119 138 1 240 85 257 214 6 41 1 54 -95 230 -96
177 -101 188 -86 209 41 58 -6 149 -78 149 -43 0 -83 -22 -92 -52 -6 -18 -15
-20 -114 -20 l-108 0 -12 39 c-33 112 -205 167 -329 105z m201 -38 c36 -14 87
-69 87 -92 0 -12 -30 -14 -175 -14 l-175 0 11 27 c14 38 27 51 68 73 43 23
137 26 184 6z m-589 -92 c19 -18 21 -55 4 -72 -27 -27 -88 -3 -88 34 0 18 36
54 54 54 8 0 22 -7 30 -16z m1068 -1 c21 -18 24 -53 6 -71 -19 -19 -66 -15
-78 7 -14 28 -13 38 10 61 24 24 38 25 62 3z m-524 -514 l-3 -452 -38 -1 -37
-1 0 453 0 452 40 0 40 0 -2 -451z m-462 219 c47 -88 84 -162 81 -164 -2 -2
-92 -3 -199 -2 l-194 3 78 145 c43 80 83 152 88 161 5 9 21 17 34 17 23 0 36
-19 112 -160z m1068 -1 c48 -88 85 -162 83 -164 -2 -2 -92 -2 -200 -1 l-195 3
81 150 c101 186 92 173 121 173 21 0 35 -22 110 -161z m-964 -231 c0 -27 -21
-71 -48 -99 -77 -82 -208 -95 -304 -32 -39 26 -78 89 -78 125 0 20 5 20 215
20 180 0 215 -2 215 -14z m1070 2 c0 -7 -9 -31 -19 -53 -79 -172 -360 -153
-409 28 l-10 37 219 0 c169 0 219 -3 219 -12z m-686 -519 c14 -11 26 -25 26
-30 0 -5 -40 -9 -90 -9 -94 0 -104 6 -70 40 28 28 98 27 134 -1z m288 -106
c22 -20 23 -49 2 -57 -9 -3 -175 -6 -370 -6 -386 0 -386 0 -350 55 l16 25 342
0 c304 0 343 -2 360 -17z"/>
</g>
</svg>
