<svg xmlns="http://www.w3.org/2000/svg" width="512" height="512" viewBox="0 0 512 512">
  <defs>
    <linearGradient id="grad1" x1="0%" y1="0%" x2="100%" y2="100%">
      <stop offset="0%" style="stop-color:#1b309a;stop-opacity:1" />
      <stop offset="100%" style="stop-color:#7055c6;stop-opacity:1" />
    </linearGradient>
  </defs>
  <rect width="512" height="512" fill="none"/>
  <g fill="url(#grad1)">
    <!-- Money bag icon -->
    <path d="M448,352h-16V144c0-26.5-21.5-48-48-48H128c-26.5,0-48,21.5-48,48v208H64c-8.8,0-16,7.2-16,16v32c0,8.8,7.2,16,16,16h384
    c8.8,0,16-7.2,16-16v-32C464,359.2,456.8,352,448,352z M128,144c0-8.8,7.2-16,16-16h224c8.8,0,16,7.2,16,16v208H128V144z"/>
    <!-- Dollar sign -->
    <path d="M256,128c-17.673,0-32,14.327-32,32h-32c0-35.346,28.654-64,64-64c35.346,0,64,28.654,64,64c0,23.685-12.926,44.349-32,55.296
    V224c0,8.837-7.163,16-16,16s-16-7.163-16-16v-32h32c8.837,0,16-7.163,16-16s-7.163-16-16-16h-32c-8.837,0-16,7.163-16,16"/>
    <circle cx="256" cy="296" r="16"/>
    <!-- Graph -->
    <path d="M368,240h16v64h-16V240z M336,208h16v96h-16V208z M304,256h16v48h-16V256z M272,224h16v80h-16V224z M176,272h16v32h-16V272z
    M144,240h16v64h-16V240z M112,256h16v48h-16V256z"/>
  </g>
</svg> 