<svg width="131" height="25" viewBox="0 0 131 25" fill="none" xmlns="http://www.w3.org/2000/svg">
<g filter="url(#filter0_i_2016_1933)">
<rect width="131" height="25" rx="3" fill="#707092" fill-opacity="0.87"/>
</g>
<path d="M25.6074 8.82129H32.0352C32.054 8.82129 32.0728 8.82503 32.0898 8.83203L32.1367 8.86328C32.1634 8.89004 32.1786 8.92621 32.1787 8.96387V15.3926C32.1787 15.4304 32.1635 15.4674 32.1367 15.4941C32.1099 15.5208 32.0729 15.5352 32.0352 15.5352H26.8311L26.7715 15.5508L25.083 15.9717L25.4385 14.9082L25.4639 14.8311V8.96387C25.4639 8.94498 25.4675 8.9263 25.4746 8.90918L25.5059 8.86328C25.5327 8.83649 25.5695 8.82129 25.6074 8.82129Z" fill="#81819F" stroke="white"/>
<path d="M26.8927 16.0356L24.3213 16.6784L24.9641 14.7499V8.96415C24.9641 8.79365 25.0319 8.63014 25.1524 8.50958C25.273 8.38902 25.4365 8.32129 25.607 8.32129H32.0356C32.2061 8.32129 32.3696 8.38902 32.4901 8.50958C32.6107 8.63014 32.6784 8.79365 32.6784 8.96415V15.3927C32.6784 15.5632 32.6107 15.7267 32.4901 15.8473C32.3696 15.9678 32.2061 16.0356 32.0356 16.0356H26.8927Z" fill="#81819F" stroke="white" stroke-linecap="round" stroke-linejoin="round"/>
<path d="M26.8931 11.2144H30.7502Z" fill="#81819F"/>
<path d="M26.8931 11.2144H30.7502" stroke="white" stroke-linecap="round" stroke-linejoin="round"/>
<path d="M26.8931 13.1426H29.4645Z" fill="#81819F"/>
<path d="M26.8931 13.1426H29.4645" stroke="white" stroke-linecap="round" stroke-linejoin="round"/>
<path d="M44.7656 10.6378C44.7277 10.3016 44.5715 10.0412 44.2969 9.85653C44.0223 9.66951 43.6766 9.57599 43.2599 9.57599C42.9616 9.57599 42.7036 9.62334 42.4858 9.71804C42.268 9.81037 42.0987 9.93821 41.978 10.1016C41.8596 10.2625 41.8004 10.446 41.8004 10.652C41.8004 10.8248 41.8407 10.974 41.9212 11.0994C42.004 11.2249 42.1117 11.3303 42.2443 11.4155C42.3793 11.4983 42.5237 11.5682 42.6776 11.625C42.8314 11.6795 42.9794 11.7244 43.1214 11.7599L43.8317 11.9446C44.0637 12.0014 44.3016 12.0784 44.5455 12.1754C44.7893 12.2725 45.0154 12.4003 45.2237 12.5589C45.4321 12.7176 45.6001 12.9141 45.728 13.1484C45.8582 13.3828 45.9233 13.6634 45.9233 13.9901C45.9233 14.402 45.8168 14.7678 45.6037 15.0874C45.393 15.407 45.0864 15.6591 44.6839 15.8438C44.2839 16.0284 43.7997 16.1207 43.2315 16.1207C42.687 16.1207 42.2159 16.0343 41.8182 15.8615C41.4205 15.6887 41.1091 15.4437 40.8842 15.1264C40.6593 14.8068 40.535 14.428 40.5114 13.9901H41.6122C41.6335 14.2528 41.7188 14.4718 41.8679 14.647C42.0194 14.8198 42.2124 14.9489 42.4467 15.0341C42.6835 15.117 42.9427 15.1584 43.2244 15.1584C43.5346 15.1584 43.8104 15.1098 44.0518 15.0128C44.2957 14.9134 44.4875 14.776 44.6271 14.6009C44.7668 14.4233 44.8366 14.2161 44.8366 13.9794C44.8366 13.764 44.7751 13.5876 44.652 13.4503C44.5313 13.313 44.3667 13.1993 44.1584 13.1094C43.9524 13.0194 43.7192 12.9401 43.4588 12.8714L42.5994 12.6371C42.017 12.4785 41.5554 12.2453 41.2145 11.9375C40.8759 11.6297 40.7067 11.2225 40.7067 10.7159C40.7067 10.2969 40.8203 9.93111 41.0476 9.61861C41.2749 9.30611 41.5826 9.06345 41.9709 8.89062C42.3591 8.71544 42.7971 8.62784 43.2848 8.62784C43.7772 8.62784 44.2116 8.71425 44.5881 8.88707C44.9669 9.0599 45.2652 9.29782 45.483 9.60085C45.7008 9.90151 45.8144 10.2472 45.8239 10.6378H44.7656ZM49.7955 10.5455V11.3977H46.8161V10.5455H49.7955ZM47.6151 9.23864H48.6769V14.3984C48.6769 14.6044 48.7077 14.7595 48.7692 14.8636C48.8308 14.9654 48.9101 15.0353 49.0071 15.0732C49.1066 15.1087 49.2143 15.1264 49.3303 15.1264C49.4155 15.1264 49.4901 15.1205 49.554 15.1087C49.6179 15.0968 49.6676 15.0874 49.7032 15.0803L49.8949 15.9574C49.8334 15.9811 49.7458 16.0047 49.6321 16.0284C49.5185 16.0545 49.3765 16.0687 49.206 16.071C48.9266 16.0758 48.6662 16.026 48.4248 15.9219C48.1833 15.8177 47.988 15.6567 47.8388 15.4389C47.6897 15.2211 47.6151 14.9477 47.6151 14.6186V9.23864ZM52.6574 16.1207C52.3117 16.1207 51.9992 16.0568 51.7199 15.929C51.4405 15.7988 51.2192 15.6106 51.0558 15.3643C50.8948 15.1181 50.8143 14.8163 50.8143 14.4588C50.8143 14.151 50.8735 13.8977 50.9919 13.6989C51.1103 13.5 51.2701 13.3426 51.4713 13.2266C51.6725 13.1106 51.8974 13.023 52.146 12.9638C52.3946 12.9046 52.6479 12.8596 52.906 12.8288C53.2327 12.791 53.4978 12.7602 53.7014 12.7365C53.905 12.7105 54.053 12.669 54.1453 12.6122C54.2376 12.5554 54.2838 12.4631 54.2838 12.3352V12.3104C54.2838 12.0002 54.1962 11.7599 54.021 11.5895C53.8482 11.419 53.5902 11.3338 53.2469 11.3338C52.8894 11.3338 52.6077 11.4131 52.4017 11.5717C52.1981 11.728 52.0572 11.902 51.9791 12.0938L50.9812 11.8665C51.0996 11.535 51.2724 11.2675 51.4997 11.0639C51.7294 10.858 51.9933 10.7088 52.2916 10.6165C52.5899 10.5218 52.9036 10.4744 53.2327 10.4744C53.4505 10.4744 53.6813 10.5005 53.9251 10.5526C54.1714 10.6023 54.401 10.6946 54.6141 10.8295C54.8295 10.9645 55.0059 11.1574 55.1432 11.4084C55.2805 11.657 55.3491 11.9801 55.3491 12.3778V16H54.3122V15.2543H54.2696C54.2009 15.3916 54.098 15.5265 53.9607 15.6591C53.8233 15.7917 53.647 15.9018 53.4315 15.9893C53.2161 16.0769 52.958 16.1207 52.6574 16.1207ZM52.8882 15.2685C53.1818 15.2685 53.4327 15.2105 53.6411 15.0945C53.8518 14.9785 54.0116 14.8269 54.1205 14.6399C54.2317 14.4505 54.2874 14.2481 54.2874 14.0327V13.3295C54.2495 13.3674 54.1761 13.4029 54.0672 13.4361C53.9607 13.4669 53.8387 13.4941 53.7014 13.5178C53.5641 13.5391 53.4304 13.5592 53.3001 13.5781C53.1699 13.5947 53.061 13.6089 52.9734 13.6207C52.7675 13.6468 52.5793 13.6906 52.4088 13.7521C52.2407 13.8137 52.1058 13.9025 52.004 14.0185C51.9045 14.1321 51.8548 14.2836 51.8548 14.473C51.8548 14.7358 51.9519 14.9347 52.146 15.0696C52.3402 15.2022 52.5875 15.2685 52.8882 15.2685ZM56.8634 16V10.5455H57.8897V11.4119H57.9465C58.0459 11.1184 58.2211 10.8875 58.4721 10.7195C58.7254 10.549 59.0118 10.4638 59.3314 10.4638C59.3977 10.4638 59.4758 10.4661 59.5658 10.4709C59.6581 10.4756 59.7303 10.4815 59.7824 10.4886V11.5043C59.7398 11.4924 59.6641 11.4794 59.5551 11.4652C59.4462 11.4486 59.3373 11.4403 59.2284 11.4403C58.9775 11.4403 58.7538 11.4936 58.5573 11.6001C58.3632 11.7043 58.2093 11.8499 58.0956 12.0369C57.982 12.2216 57.9252 12.4323 57.9252 12.669V16H56.8634ZM63.6697 10.5455V11.3977H60.6903V10.5455H63.6697ZM61.4893 9.23864H62.5511V14.3984C62.5511 14.6044 62.5819 14.7595 62.6434 14.8636C62.705 14.9654 62.7843 15.0353 62.8814 15.0732C62.9808 15.1087 63.0885 15.1264 63.2045 15.1264C63.2897 15.1264 63.3643 15.1205 63.4282 15.1087C63.4922 15.0968 63.5419 15.0874 63.5774 15.0803L63.7691 15.9574C63.7076 15.9811 63.62 16.0047 63.5064 16.0284C63.3927 16.0545 63.2507 16.0687 63.0802 16.071C62.8009 16.0758 62.5404 16.026 62.299 15.9219C62.0575 15.8177 61.8622 15.6567 61.713 15.4389C61.5639 15.2211 61.4893 14.9477 61.4893 14.6186V9.23864ZM73.8164 11.0923H72.7085C72.6659 10.8556 72.5866 10.6473 72.4706 10.4673C72.3546 10.2874 72.2125 10.1347 72.0444 10.0092C71.8763 9.88376 71.6881 9.78906 71.4798 9.72514C71.2738 9.66122 71.0548 9.62926 70.8228 9.62926C70.4038 9.62926 70.0286 9.73461 69.6971 9.94531C69.3681 10.156 69.1076 10.465 68.9159 10.8722C68.7265 11.2794 68.6318 11.7765 68.6318 12.3636C68.6318 12.9555 68.7265 13.455 68.9159 13.8622C69.1076 14.2694 69.3692 14.5772 69.7007 14.7855C70.0321 14.9938 70.405 15.098 70.8193 15.098C71.0489 15.098 71.2667 15.0672 71.4727 15.0057C71.681 14.9418 71.8692 14.8482 72.0373 14.7251C72.2054 14.602 72.3475 14.4517 72.4635 14.2741C72.5818 14.0942 72.6635 13.8883 72.7085 13.6562L73.8164 13.6598C73.7573 14.0173 73.6424 14.3464 73.472 14.647C73.3039 14.9453 73.0873 15.2034 72.8221 15.4212C72.5593 15.6366 72.2587 15.8035 71.9201 15.9219C71.5816 16.0402 71.2123 16.0994 70.8122 16.0994C70.1824 16.0994 69.6214 15.9503 69.1289 15.652C68.6365 15.3513 68.2483 14.9216 67.9642 14.3629C67.6824 13.8042 67.5416 13.1378 67.5416 12.3636C67.5416 11.5871 67.6836 10.9207 67.9677 10.3643C68.2518 9.80563 68.6401 9.37713 69.1325 9.07884C69.6249 8.77817 70.1848 8.62784 70.8122 8.62784C71.1981 8.62784 71.5579 8.68348 71.8917 8.79474C72.2279 8.90365 72.5297 9.06463 72.7973 9.2777C73.0648 9.4884 73.2861 9.74645 73.4613 10.0518C73.6365 10.3549 73.7549 10.7017 73.8164 11.0923ZM76.206 12.7614V16H75.1442V8.72727H76.1918V11.4332H76.2593C76.3871 11.1397 76.5825 10.9065 76.8452 10.7337C77.108 10.5608 77.4513 10.4744 77.8751 10.4744C78.2491 10.4744 78.5758 10.5514 78.8552 10.7053C79.1369 10.8591 79.3547 11.0888 79.5086 11.3942C79.6648 11.6972 79.743 12.076 79.743 12.5305V16H78.6812V12.6584C78.6812 12.2583 78.5782 11.9482 78.3722 11.728C78.1663 11.5054 77.8798 11.3942 77.5129 11.3942C77.2619 11.3942 77.037 11.4474 76.8381 11.554C76.6416 11.6605 76.4866 11.8168 76.3729 12.0227C76.2617 12.2263 76.206 12.4725 76.206 12.7614ZM82.8472 16.1207C82.5016 16.1207 82.1891 16.0568 81.9097 15.929C81.6304 15.7988 81.409 15.6106 81.2457 15.3643C81.0847 15.1181 81.0042 14.8163 81.0042 14.4588C81.0042 14.151 81.0634 13.8977 81.1817 13.6989C81.3001 13.5 81.4599 13.3426 81.6611 13.2266C81.8624 13.1106 82.0873 13.023 82.3359 12.9638C82.5844 12.9046 82.8378 12.8596 83.0958 12.8288C83.4225 12.791 83.6877 12.7602 83.8913 12.7365C84.0949 12.7105 84.2428 12.669 84.3352 12.6122C84.4275 12.5554 84.4736 12.4631 84.4736 12.3352V12.3104C84.4736 12.0002 84.3861 11.7599 84.2109 11.5895C84.038 11.419 83.78 11.3338 83.4367 11.3338C83.0792 11.3338 82.7975 11.4131 82.5915 11.5717C82.3879 11.728 82.2471 11.902 82.169 12.0938L81.1711 11.8665C81.2895 11.535 81.4623 11.2675 81.6896 11.0639C81.9192 10.858 82.1832 10.7088 82.4815 10.6165C82.7798 10.5218 83.0934 10.4744 83.4225 10.4744C83.6403 10.4744 83.8711 10.5005 84.115 10.5526C84.3612 10.6023 84.5908 10.6946 84.8039 10.8295C85.0193 10.9645 85.1957 11.1574 85.333 11.4084C85.4703 11.657 85.539 11.9801 85.539 12.3778V16H84.5021V15.2543H84.4594C84.3908 15.3916 84.2878 15.5265 84.1505 15.6591C84.0132 15.7917 83.8368 15.9018 83.6214 15.9893C83.4059 16.0769 83.1479 16.1207 82.8472 16.1207ZM83.0781 15.2685C83.3716 15.2685 83.6226 15.2105 83.8309 15.0945C84.0416 14.9785 84.2014 14.8269 84.3103 14.6399C84.4216 14.4505 84.4772 14.2481 84.4772 14.0327V13.3295C84.4393 13.3674 84.3659 13.4029 84.257 13.4361C84.1505 13.4669 84.0286 13.4941 83.8913 13.5178C83.754 13.5391 83.6202 13.5592 83.49 13.5781C83.3598 13.5947 83.2509 13.6089 83.1633 13.6207C82.9573 13.6468 82.7691 13.6906 82.5986 13.7521C82.4306 13.8137 82.2956 13.9025 82.1938 14.0185C82.0944 14.1321 82.0447 14.2836 82.0447 14.473C82.0447 14.7358 82.1417 14.9347 82.3359 15.0696C82.53 15.2022 82.7774 15.2685 83.0781 15.2685ZM89.5994 10.5455V11.3977H86.62V10.5455H89.5994ZM87.419 9.23864H88.4808V14.3984C88.4808 14.6044 88.5116 14.7595 88.5731 14.8636C88.6347 14.9654 88.714 15.0353 88.811 15.0732C88.9105 15.1087 89.0182 15.1264 89.1342 15.1264C89.2194 15.1264 89.294 15.1205 89.3579 15.1087C89.4218 15.0968 89.4716 15.0874 89.5071 15.0803L89.6988 15.9574C89.6373 15.9811 89.5497 16.0047 89.436 16.0284C89.3224 16.0545 89.1804 16.0687 89.0099 16.071C88.7306 16.0758 88.4701 16.026 88.2287 15.9219C87.9872 15.8177 87.7919 15.6567 87.6427 15.4389C87.4936 15.2211 87.419 14.9477 87.419 14.6186V9.23864ZM93.4201 10.5455V11.3977H90.4407V10.5455H93.4201ZM91.2397 9.23864H92.3015V14.3984C92.3015 14.6044 92.3323 14.7595 92.3938 14.8636C92.4554 14.9654 92.5347 15.0353 92.6317 15.0732C92.7312 15.1087 92.8389 15.1264 92.9549 15.1264C93.0401 15.1264 93.1147 15.1205 93.1786 15.1087C93.2425 15.0968 93.2923 15.0874 93.3278 15.0803L93.5195 15.9574C93.458 15.9811 93.3704 16.0047 93.2567 16.0284C93.1431 16.0545 93.0011 16.0687 92.8306 16.071C92.5513 16.0758 92.2908 16.026 92.0494 15.9219C91.8079 15.8177 91.6126 15.6567 91.4634 15.4389C91.3143 15.2211 91.2397 14.9477 91.2397 14.6186V9.23864ZM94.6946 16V10.5455H95.7564V16H94.6946ZM95.2309 9.70384C95.0462 9.70384 94.8876 9.64228 94.755 9.51918C94.6248 9.3937 94.5597 9.24455 94.5597 9.07173C94.5597 8.89654 94.6248 8.7474 94.755 8.62429C94.8876 8.49882 95.0462 8.43608 95.2309 8.43608C95.4155 8.43608 95.573 8.49882 95.7032 8.62429C95.8357 8.7474 95.902 8.89654 95.902 9.07173C95.902 9.24455 95.8357 9.3937 95.7032 9.51918C95.573 9.64228 95.4155 9.70384 95.2309 9.70384ZM98.3467 12.7614V16H97.2849V10.5455H98.304V11.4332H98.3715C98.497 11.1444 98.6935 10.9124 98.961 10.7372C99.2309 10.562 99.5706 10.4744 99.9802 10.4744C100.352 10.4744 100.677 10.5526 100.957 10.7088C101.236 10.8627 101.453 11.0923 101.607 11.3977C101.76 11.7031 101.837 12.0807 101.837 12.5305V16H100.776V12.6584C100.776 12.263 100.673 11.9541 100.467 11.7315C100.261 11.5066 99.9778 11.3942 99.618 11.3942C99.3718 11.3942 99.1528 11.4474 98.961 11.554C98.7716 11.6605 98.6213 11.8168 98.51 12.0227C98.4011 12.2263 98.3467 12.4725 98.3467 12.7614ZM105.648 18.1591C105.215 18.1591 104.842 18.1023 104.53 17.9886C104.22 17.875 103.966 17.7247 103.77 17.5376C103.573 17.3506 103.427 17.1458 103.329 16.9233L104.242 16.5469C104.306 16.651 104.391 16.7611 104.498 16.8771C104.607 16.9955 104.753 17.0961 104.938 17.179C105.125 17.2618 105.365 17.3033 105.659 17.3033C106.061 17.3033 106.394 17.205 106.657 17.0085C106.92 16.8144 107.051 16.5043 107.051 16.0781V15.0057H106.984C106.92 15.1217 106.827 15.2507 106.707 15.3928C106.588 15.5348 106.425 15.6579 106.217 15.7621C106.008 15.8662 105.737 15.9183 105.403 15.9183C104.972 15.9183 104.584 15.8177 104.239 15.6165C103.895 15.4129 103.623 15.1134 103.422 14.718C103.223 14.3203 103.124 13.8314 103.124 13.2514C103.124 12.6714 103.222 12.1742 103.418 11.7599C103.617 11.3456 103.889 11.0284 104.235 10.8082C104.581 10.5857 104.972 10.4744 105.41 10.4744C105.749 10.4744 106.022 10.5312 106.231 10.6449C106.439 10.7562 106.601 10.8864 106.717 11.0355C106.836 11.1847 106.927 11.3161 106.991 11.4297H107.069V10.5455H108.109V16.1207C108.109 16.5895 108 16.9742 107.783 17.2749C107.565 17.5755 107.27 17.7981 106.898 17.9425C106.529 18.0869 106.112 18.1591 105.648 18.1591ZM105.638 15.0376C105.943 15.0376 106.201 14.9666 106.412 14.8246C106.625 14.6802 106.786 14.4742 106.895 14.2067C107.006 13.9368 107.062 13.6136 107.062 13.2372C107.062 12.8703 107.007 12.5471 106.898 12.2678C106.789 11.9884 106.63 11.7706 106.419 11.6143C106.208 11.4557 105.948 11.3764 105.638 11.3764C105.318 11.3764 105.052 11.4593 104.839 11.625C104.626 11.7884 104.465 12.0109 104.356 12.2926C104.249 12.5743 104.196 12.8892 104.196 13.2372C104.196 13.5947 104.25 13.9084 104.359 14.1783C104.468 14.4482 104.629 14.6589 104.842 14.8104C105.058 14.9619 105.323 15.0376 105.638 15.0376Z" fill="white"/>
<defs>
<filter id="filter0_i_2016_1933" x="0" y="0" width="131" height="25" filterUnits="userSpaceOnUse" color-interpolation-filters="sRGB">
<feFlood flood-opacity="0" result="BackgroundImageFix"/>
<feBlend mode="normal" in="SourceGraphic" in2="BackgroundImageFix" result="shape"/>
<feColorMatrix in="SourceAlpha" type="matrix" values="0 0 0 0 0 0 0 0 0 0 0 0 0 0 0 0 0 0 127 0" result="hardAlpha"/>
<feOffset/>
<feGaussianBlur stdDeviation="3.7"/>
<feComposite in2="hardAlpha" operator="arithmetic" k2="-1" k3="1"/>
<feColorMatrix type="matrix" values="0 0 0 0 0 0 0 0 0 0 0 0 0 0 0 0 0 0 0.18 0"/>
<feBlend mode="normal" in2="shape" result="effect1_innerShadow_2016_1933"/>
</filter>
</defs>
</svg>
