<svg width="24" height="22" viewBox="0 0 24 22" fill="none" xmlns="http://www.w3.org/2000/svg">
<path d="M11 13.184V9.93396C11 9.2436 10.4404 8.68396 9.75 8.68396V8.68396C9.05964 8.68396 8.5 9.2436 8.5 9.93396V9.93396C8.5 10.6243 9.05964 11.184 9.75 11.184H14.25C14.9404 11.184 15.5 10.6243 15.5 9.93396V9.93396C15.5 9.2436 14.9404 8.68396 14.25 8.68396V8.68396C13.5596 8.68396 13 9.2436 13 9.93396V13.184" stroke="#7E869E" stroke-opacity="0.25" stroke-linecap="round"/>
<circle cx="12" cy="9.18396" r="6.5" stroke="#7E869E" stroke-opacity="0.25"/>
<mask id="path-3-inside-1_38_7" fill="white">
<path fill-rule="evenodd" clip-rule="evenodd" d="M15 15.684C15 15.5808 15.0558 15.4844 15.1479 15.4379C17.4329 14.2855 19 11.9177 19 9.18396C19 5.31797 15.866 2.18396 12 2.18396C8.13401 2.18396 5 5.31797 5 9.18396C5 11.9177 6.56713 14.2855 8.85205 15.4379C8.94419 15.4844 9 15.5808 9 15.684V18.684C9 20.0647 10.1193 21.184 11.5 21.184H12.5C13.8807 21.184 15 20.0647 15 18.684V15.684Z"/>
</mask>
<path d="M8.85205 15.4379L8.40174 16.3308L8.85205 15.4379ZM15.1479 15.4379L14.6976 14.545L15.1479 15.4379ZM18 9.18396C18 11.5258 16.6586 13.556 14.6976 14.545L15.5983 16.3308C18.2071 15.015 20 12.3097 20 9.18396H18ZM12 3.18396C15.3137 3.18396 18 5.87025 18 9.18396H20C20 4.76568 16.4183 1.18396 12 1.18396V3.18396ZM6 9.18396C6 5.87025 8.68629 3.18396 12 3.18396V1.18396C7.58172 1.18396 4 4.76568 4 9.18396H6ZM9.30237 14.545C7.34141 13.556 6 11.5258 6 9.18396H4C4 12.3097 5.79285 15.015 8.40174 16.3308L9.30237 14.545ZM10 18.684V15.684H8V18.684H10ZM11.5 20.184C10.6716 20.184 10 19.5124 10 18.684H8C8 20.617 9.567 22.184 11.5 22.184V20.184ZM12.5 20.184H11.5V22.184H12.5V20.184ZM14 18.684C14 19.5124 13.3284 20.184 12.5 20.184V22.184C14.433 22.184 16 20.617 16 18.684H14ZM14 15.684V18.684H16V15.684H14ZM8.40174 16.3308C8.1359 16.1967 8 15.9343 8 15.684H10C10 15.2272 9.75248 14.772 9.30237 14.545L8.40174 16.3308ZM14.6976 14.545C14.2475 14.772 14 15.2272 14 15.684H16C16 15.9343 15.8641 16.1967 15.5983 16.3308L14.6976 14.545Z" fill="#222222" mask="url(#path-3-inside-1_38_7)"/>
</svg>
