<?xml version="1.0" encoding="UTF-8"?>
<svg width="124" height="24" viewBox="0 0 124 24" fill="none" xmlns="http://www.w3.org/2000/svg">
  <path d="M18.6296 0H3.7037C1.6574 0 0 1.6574 0 3.7037V18.6296C0 20.6759 1.6574 22.3333 3.7037 22.3333H18.6296C20.6759 22.3333 22.3333 20.6759 22.3333 18.6296V3.7037C22.3333 1.6574 20.6759 0 18.6296 0Z" fill="#3395FF"/>
  <path d="M14.4074 7.4074L9.8148 15.5556H13.037L17.6296 7.4074H14.4074Z" fill="white"/>
  <path d="M9.8148 7.4074L5.2222 15.5556H8.4444L13.037 7.4074H9.8148Z" fill="white" fill-opacity="0.6"/>
  <path d="M32.4074 11.7037V17.7778H30.2222V6.6667H32.4074V7.7037C33.0741 6.9259 34 6.4815 35.1111 6.4815C37.2963 6.4815 38.6667 8.0741 38.6667 10.5926V17.7778H36.4815V10.7778C36.4815 9.4074 35.7037 8.4444 34.3333 8.4444C33.0741 8.4444 32.4074 9.5926 32.4074 11.7037Z" fill="#072654"/>
  <path d="M48.4815 12.2222C48.4815 12.3333 48.4815 12.4444 48.4815 12.5556H41.7037C42 14 43.1111 14.7778 44.5926 14.7778C45.6296 14.7778 46.4074 14.4074 47.0741 13.7037L48.1111 15.1111C47.2222 16.1111 46 16.6667 44.4815 16.6667C41.7037 16.6667 39.6296 14.6667 39.6296 11.7037C39.6296 8.7407 41.7037 6.7407 44.3704 6.7407C47.0741 6.7407 48.4815 8.7407 48.4815 12.2222ZM41.7037 10.8889H46.5185C46.4074 9.4444 45.5185 8.5556 44.1481 8.5556C42.7778 8.5556 41.8889 9.4444 41.7037 10.8889Z" fill="#072654"/>
  <path d="M50 13.3333V8.7407H48.2963V6.8889H50V4.2963H52.1852V6.8889H54.6296V8.7407H52.1852V13.1111C52.1852 14.1111 52.5556 14.4815 53.3333 14.4815C53.7778 14.4815 54.1111 14.3704 54.4074 14.2593L54.8519 16C54.3704 16.2222 53.7778 16.3333 53.0741 16.3333C51.0741 16.3333 50 15.3333 50 13.3333Z" fill="#072654"/>
  <path d="M63.6296 6.6667V17.7778H61.4444V16.7407C60.7778 17.5185 59.8519 17.963 58.7407 17.963C56.5556 17.963 55.1852 16.3704 55.1852 13.8519V6.6667H57.3704V13.6667C57.3704 15.037 58.1481 16 59.5185 16C60.7778 16 61.4444 14.8519 61.4444 12.7407V6.6667H63.6296Z" fill="#072654"/>
  <path d="M73.4444 12.2222C73.4444 12.3333 73.4444 12.4444 73.4444 12.5556H66.6667C66.963 14 68.0741 14.7778 69.5556 14.7778C70.5926 14.7778 71.3704 14.4074 72.037 13.7037L73.0741 15.1111C72.1852 16.1111 70.963 16.6667 69.4444 16.6667C66.6667 16.6667 64.5926 14.6667 64.5926 11.7037C64.5926 8.7407 66.6667 6.7407 69.3333 6.7407C72.037 6.7407 73.4444 8.7407 73.4444 12.2222ZM66.6667 10.8889H71.4815C71.3704 9.4444 70.4815 8.5556 69.1111 8.5556C67.7407 8.5556 66.8519 9.4444 66.6667 10.8889Z" fill="#072654"/>
  <path d="M75 6.6667H77.1852V17.7778H75V6.6667Z" fill="#072654"/>
  <path d="M86.8889 6.6667V17.7778H84.7037V16.7407C84.037 17.5185 83.1111 17.963 82 17.963C79.8148 17.963 78.4444 16.3704 78.4444 13.8519V6.6667H80.6296V13.6667C80.6296 15.037 81.4074 16 82.7778 16C84.037 16 84.7037 14.8519 84.7037 12.7407V6.6667H86.8889Z" fill="#072654"/>
  <path d="M96.7037 12.2222C96.7037 12.3333 96.7037 12.4444 96.7037 12.5556H89.9259C90.2222 14 91.3333 14.7778 92.8148 14.7778C93.8519 14.7778 94.6296 14.4074 95.2963 13.7037L96.3333 15.1111C95.4444 16.1111 94.2222 16.6667 92.7037 16.6667C89.9259 16.6667 87.8519 14.6667 87.8519 11.7037C87.8519 8.7407 89.9259 6.7407 92.5926 6.7407C95.2963 6.7407 96.7037 8.7407 96.7037 12.2222ZM89.9259 10.8889H94.7407C94.6296 9.4444 93.7407 8.5556 92.3704 8.5556C91 8.5556 90.1111 9.4444 89.9259 10.8889Z" fill="#072654"/>
  <path d="M98.2222 6.6667H100.407V17.7778H98.2222V6.6667Z" fill="#072654"/>
  <path d="M110.222 6.6667V17.7778H108.037V16.7407C107.37 17.5185 106.444 17.963 105.333 17.963C103.148 17.963 101.778 16.3704 101.778 13.8519V6.6667H103.963V13.6667C103.963 15.037 104.741 16 106.111 16C107.37 16 108.037 14.8519 108.037 12.7407V6.6667H110.222Z" fill="#072654"/>
  <path d="M120.037 12.2222C120.037 12.3333 120.037 12.4444 120.037 12.5556H113.259C113.556 14 114.667 14.7778 116.148 14.7778C117.185 14.7778 117.963 14.4074 118.63 13.7037L119.667 15.1111C118.778 16.1111 117.556 16.6667 116.037 16.6667C113.259 16.6667 111.185 14.6667 111.185 11.7037C111.185 8.7407 113.259 6.7407 115.926 6.7407C118.63 6.7407 120.037 8.7407 120.037 12.2222ZM113.259 10.8889H118.074C117.963 9.4444 117.074 8.5556 115.704 8.5556C114.333 8.5556 113.444 9.4444 113.259 10.8889Z" fill="#072654"/>
  <path d="M76.0741 3.7037C76.0741 4.7407 75.2222 5.5926 74.1852 5.5926C73.1481 5.5926 72.2963 4.7407 72.2963 3.7037C72.2963 2.6667 73.1481 1.8148 74.1852 1.8148C75.2222 1.8148 76.0741 2.6667 76.0741 3.7037Z" fill="#072654"/>
  <path d="M99.2593 3.7037C99.2593 4.7407 98.4074 5.5926 97.3704 5.5926C96.3333 5.5926 95.4815 4.7407 95.4815 3.7037C95.4815 2.6667 96.3333 1.8148 97.3704 1.8148C98.4074 1.8148 99.2593 2.6667 99.2593 3.7037Z" fill="#072654"/>
</svg> 