<svg xmlns="http://www.w3.org/2000/svg" width="512" height="512" viewBox="0 0 512 512">
  <defs>
    <linearGradient id="grad1" x1="0%" y1="0%" x2="100%" y2="100%">
      <stop offset="0%" style="stop-color:#1b309a;stop-opacity:1" />
      <stop offset="100%" style="stop-color:#7055c6;stop-opacity:1" />
    </linearGradient>
  </defs>
  <rect width="512" height="512" fill="none"/>
  <g fill="url(#grad1)">
    <!-- Heart icon -->
    <path d="M256,448l-30.164-27.211C118.718,322.442,48,258.61,48,179.095C48,114.221,97.918,64,162.4,64 c36.399,0,70.717,16.742,93.6,43.947C278.882,80.742,313.199,64,349.6,64C414.082,64,464,114.221,464,179.095 c0,79.516-70.719,143.348-177.836,241.694L256,448z"/>
    
    <!-- Two people icons side by side -->
    <circle cx="170" cy="160" r="32"/>
    <path d="M170,208c-26.51,0-48,21.49-48,48v48h96v-48C218,229.49,196.51,208,170,208z"/>
    <circle cx="342" cy="160" r="32"/>
    <path d="M342,208c-26.51,0-48,21.49-48,48v48h96v-48C390,229.49,368.51,208,342,208z"/>
  </g>
</svg> 