<svg width="22" height="22" viewBox="0 0 22 22" fill="none" xmlns="http://www.w3.org/2000/svg">
<path d="M12.9582 3.08124L13.4557 3.03149V3.03149L12.9582 3.08124ZM12.8557 2.45908L13.3194 2.27199L13.3194 2.27199L12.8557 2.45908ZM13.1549 4.19074L12.7199 4.43736L13.1549 4.19074ZM14.2911 4.66138L14.158 4.17944V4.17945L14.2911 4.66138ZM15.2148 4.01595L15.5314 4.40293L15.5507 4.38714L15.5683 4.36951L15.2148 4.01595ZM15.2148 4.01595L14.8981 3.62897L14.8788 3.64476L14.8612 3.6624L15.2148 4.01595ZM15.7271 3.64846L15.9227 4.10862L15.9227 4.10862L15.7271 3.64846ZM16.5991 3.69195L16.8395 3.25353V3.25353L16.5991 3.69195ZM17.0723 4.1086L16.7187 4.46215L16.7187 4.46215L17.0723 4.1086ZM17.8913 4.92761L17.5378 5.28117L17.5495 5.29294L17.5621 5.3039L17.8913 4.92761ZM17.8913 4.92762L18.2449 4.57407L18.2331 4.5623L18.2206 4.55133L17.8913 4.92762ZM18.308 5.40087L17.8696 5.64126L17.8696 5.64127L18.308 5.40087ZM18.3515 6.27281L18.8116 6.46839V6.46839L18.3515 6.27281ZM17.984 6.78518L18.3709 7.1018L17.984 6.78518ZM17.3385 7.70884L16.8566 7.57568V7.57568L17.3385 7.70884ZM17.8091 8.84506L18.0558 8.41011H18.0558L17.8091 8.84506ZM18.9187 9.04178L18.8689 9.5393L18.9187 9.04178ZM19.5409 9.14422L19.728 8.68054V8.68054L19.5409 9.14422ZM20.1267 9.79151L20.6067 9.65149V9.65148L20.1267 9.79151ZM20.1267 12.2082L19.6467 12.0682V12.0683L20.1267 12.2082ZM19.5408 12.8557L19.7279 13.3193L19.7279 13.3193L19.5408 12.8557ZM18.9188 12.958L18.869 12.4605L18.9188 12.958ZM17.8097 13.1547L17.5631 12.7197L17.5631 12.7197L17.8097 13.1547ZM17.3389 14.2911L17.8208 14.1579V14.1579L17.3389 14.2911ZM17.9841 15.2144L17.597 15.5311L17.6045 15.5398L17.9841 15.2144ZM17.9841 15.2144L18.3712 14.8977L18.3638 14.889L17.9841 15.2144ZM18.3515 15.7265L18.8116 15.5309L18.8116 15.5309L18.3515 15.7265ZM18.308 16.5987L17.8696 16.3582L17.8696 16.3582L18.308 16.5987ZM17.8915 17.0717L17.5379 16.7182H17.5379L17.8915 17.0717ZM17.0723 17.8908L16.7188 17.5373L16.7188 17.5373L17.0723 17.8908ZM16.5991 18.3075L16.3587 17.8691L16.3587 17.8691L16.5991 18.3075ZM15.7271 18.351L15.9227 17.8908L15.9227 17.8908L15.7271 18.351ZM15.2148 17.9835L14.8612 18.337L14.8789 18.3547L14.8982 18.3705L15.2148 17.9835ZM15.2148 17.9835L15.5683 17.6299L15.5507 17.6123L15.5314 17.5965L15.2148 17.9835ZM14.2912 17.338L14.4243 16.8561L14.4243 16.8561L14.2912 17.338ZM13.1549 17.8087L13.5899 18.0553L13.1549 17.8087ZM12.9582 18.9184L13.4557 18.9681L12.9582 18.9184ZM12.8557 19.5409L13.3194 19.728L13.3194 19.728L12.8557 19.5409ZM12.2085 20.1265L12.3486 20.6065H12.3486L12.2085 20.1265ZM9.79164 20.1266L9.65161 20.6066L9.79164 20.1266ZM9.14434 19.5408L9.60802 19.3537L9.60802 19.3537L9.14434 19.5408ZM8.84517 17.809L9.28011 17.5624L9.28011 17.5624L8.84517 17.809ZM7.70897 17.3384L7.57582 16.8565L7.70897 17.3384ZM6.78527 17.9839L7.06262 18.3999L7.08297 18.3863L7.10189 18.3708L6.78527 17.9839ZM6.78526 17.9839L6.50791 17.5679L6.48756 17.5814L6.46864 17.5969L6.78526 17.9839ZM6.27288 18.3514L6.46845 18.8116H6.46845L6.27288 18.3514ZM5.40096 18.3079L5.16057 18.7463H5.16057L5.40096 18.3079ZM4.92768 17.8912L5.28123 17.5377L5.28123 17.5377L4.92768 17.8912ZM4.10869 17.0722L3.75514 17.4258L3.75514 17.4258L4.10869 17.0722ZM3.69202 16.599L4.13044 16.3586L4.13044 16.3586L3.69202 16.599ZM3.64853 15.727L4.10869 15.9226L4.10869 15.9226L3.64853 15.727ZM4.01604 15.2147L4.40302 15.5313L4.4097 15.5231L4.41604 15.5147L4.01604 15.2147ZM4.01605 15.2147L3.62907 14.898L3.62239 14.9062L3.61605 14.9147L4.01605 15.2147ZM4.6615 14.291L4.17956 14.1578L4.17956 14.1578L4.6615 14.291ZM4.19086 13.1548L4.43748 12.7198L4.43748 12.7198L4.19086 13.1548ZM3.08135 12.958L3.1311 12.4605H3.1311L3.08135 12.958ZM2.4592 12.8556L2.64629 12.3919H2.64629L2.4592 12.8556ZM1.87339 12.2083L2.35338 12.0683H2.35338L1.87339 12.2083ZM1.83337 11.579H2.33337H1.83337ZM1.83337 10.4209H1.33337H1.83337ZM1.87341 9.79144L2.35339 9.93151L2.35339 9.93151L1.87341 9.79144ZM2.45911 9.14425L2.27198 8.68059H2.27198L2.45911 9.14425ZM3.08146 9.04178V8.54178H3.05652L3.03171 8.54426L3.08146 9.04178ZM3.08147 9.04178V9.54178H3.1064L3.13122 9.53929L3.08147 9.04178ZM4.19132 8.84496L4.438 9.27988L4.438 9.27988L4.19132 8.84496ZM4.66188 7.70894L5.14384 7.57583L4.66188 7.70894ZM4.01621 6.78492L3.62723 7.09909L3.62923 7.10154L4.01621 6.78492ZM4.01621 6.78491L4.40518 6.47074L4.40318 6.46829L4.01621 6.78491ZM3.64852 6.27227L4.10871 6.07676V6.07676L3.64852 6.27227ZM3.692 5.40057L4.13045 5.64091L4.13045 5.64091L3.692 5.40057ZM4.10884 4.92708L3.75529 4.57353H3.75529L4.10884 4.92708ZM5.401 3.69152L5.16061 3.2531V3.2531L5.401 3.69152ZM6.27292 3.64803L6.46849 3.18787L6.46849 3.18787L6.27292 3.64803ZM6.78539 4.01562L7.102 3.62864L6.78539 4.01562ZM7.70886 4.66099L7.8421 4.17907H7.8421L7.70886 4.66099ZM8.84529 4.19027L8.41031 3.94371L8.41031 3.94371L8.84529 4.19027ZM9.04192 3.08112L8.5444 3.03136V3.03136L9.04192 3.08112ZM9.1443 2.45916L8.6806 2.27212V2.27212L9.1443 2.45916ZM9.79174 1.87324L9.93172 2.35325L9.93172 2.35324L9.79174 1.87324ZM12.2084 1.87326L12.3485 1.39327L12.3485 1.39327L12.2084 1.87326ZM13.4557 3.03149C13.4264 2.73877 13.4063 2.48722 13.3194 2.27199L12.3921 2.64616C12.4121 2.69594 12.4246 2.77083 12.4607 3.13099L13.4557 3.03149ZM13.5898 3.94412C13.5834 3.9327 13.5605 3.88253 13.5343 3.71935C13.5088 3.56028 13.4872 3.34639 13.4557 3.03149L12.4607 3.13099C12.4909 3.43331 12.5156 3.68235 12.5469 3.87781C12.5777 4.06916 12.6223 4.26513 12.7199 4.43736L13.5898 3.94412ZM14.158 4.17945C13.937 4.24049 13.7029 4.14351 13.5898 3.94412L12.7199 4.43736C13.0591 5.03551 13.7615 5.32646 14.4243 5.14332L14.158 4.17945ZM14.8981 3.62898C14.6532 3.82938 14.4867 3.96534 14.3562 4.05977C14.2223 4.15664 14.1706 4.17595 14.158 4.17944L14.4243 5.14332C14.6151 5.09059 14.7853 4.98358 14.9423 4.86999C15.1027 4.75396 15.2962 4.59533 15.5314 4.40293L14.8981 3.62898ZM14.8612 3.6624L14.8612 3.6624L15.5683 4.36951L15.5683 4.3695L14.8612 3.6624ZM15.5315 3.1883C15.3179 3.27908 15.1258 3.44269 14.8981 3.62897L15.5314 4.40293C15.8115 4.17373 15.8733 4.12961 15.9227 4.10862L15.5315 3.1883ZM16.8395 3.25353C16.4365 3.03257 15.9545 3.00853 15.5315 3.1883L15.9227 4.10862C16.0637 4.0487 16.2243 4.05671 16.3587 4.13036L16.8395 3.25353ZM17.4259 3.75505C17.2178 3.54704 17.043 3.36512 16.8395 3.25353L16.3587 4.13036C16.4057 4.15617 16.4628 4.20622 16.7187 4.46215L17.4259 3.75505ZM18.2449 4.57406L17.4259 3.75505L16.7187 4.46215L17.5378 5.28117L18.2449 4.57406ZM18.2206 4.55133L18.2206 4.55132L17.5621 5.3039L17.5621 5.30391L18.2206 4.55133ZM18.7464 5.16048C18.6348 4.95697 18.4529 4.78208 18.2449 4.57407L17.5378 5.28118C17.7937 5.53712 17.8438 5.5942 17.8696 5.64126L18.7464 5.16048ZM18.8116 6.46839C18.9914 6.04544 18.9674 5.56344 18.7464 5.16047L17.8696 5.64127C17.9432 5.77558 17.9512 5.93625 17.8913 6.07724L18.8116 6.46839ZM18.3709 7.1018C18.5572 6.87411 18.7208 6.68199 18.8116 6.46839L17.8913 6.07724C17.8703 6.12663 17.8262 6.18842 17.597 6.46856L18.3709 7.1018ZM17.8205 7.842C17.824 7.82934 17.8433 7.7777 17.9401 7.6438C18.0346 7.51326 18.1705 7.34674 18.3709 7.1018L17.597 6.46856C17.4046 6.70372 17.2459 6.89728 17.1299 7.05767C17.0163 7.21469 16.9093 7.38483 16.8566 7.57568L17.8205 7.842ZM18.0558 8.41011C17.8564 8.29706 17.7594 8.06292 17.8205 7.842L16.8566 7.57568C16.6734 8.23844 16.9644 8.94084 17.5625 9.28L18.0558 8.41011ZM18.9685 8.54427C18.6535 8.51277 18.4396 8.49117 18.2806 8.46564C18.1174 8.43945 18.0672 8.41659 18.0558 8.41011L17.5625 9.28C17.7348 9.37766 17.9307 9.4223 18.1221 9.45301C18.3176 9.48438 18.5666 9.50907 18.8689 9.5393L18.9685 8.54427ZM19.728 8.68054C19.5128 8.59369 19.2612 8.57354 18.9684 8.54427L18.8689 9.5393C19.2291 9.57532 19.304 9.58781 19.3538 9.6079L19.728 8.68054ZM20.6067 9.65148C20.478 9.21033 20.1542 8.8525 19.728 8.68054L19.3538 9.6079C19.4959 9.66522 19.6038 9.78449 19.6467 9.93155L20.6067 9.65148ZM20.6667 10.4208C20.6667 10.1266 20.6717 9.8743 20.6067 9.65149L19.6467 9.93154C19.6617 9.98307 19.6667 10.0588 19.6667 10.4208H20.6667ZM20.6667 11.5791V10.4208H19.6667V11.5791H20.6667ZM20.6067 12.3482C20.6717 12.1255 20.6667 11.8732 20.6667 11.5791H19.6667C19.6667 11.941 19.6617 12.0167 19.6467 12.0682L20.6067 12.3482ZM19.7279 13.3193C20.1541 13.1474 20.478 12.7895 20.6067 12.3482L19.6467 12.0683C19.6038 12.2153 19.4958 12.3346 19.3538 12.392L19.7279 13.3193ZM18.9685 13.4556C19.2612 13.4263 19.5127 13.4061 19.7279 13.3193L19.3538 12.392C19.304 12.412 19.2291 12.4245 18.869 12.4605L18.9685 13.4556ZM18.0562 13.5896C18.0676 13.5832 18.1178 13.5603 18.2809 13.5342C18.4399 13.5086 18.6537 13.487 18.9685 13.4556L18.869 12.4605C18.5668 12.4907 18.3179 12.5154 18.1225 12.5468C17.9312 12.5775 17.7353 12.6221 17.5631 12.7197L18.0562 13.5896ZM17.8208 14.1579C17.7597 13.9369 17.8567 13.7027 18.0562 13.5896L17.5631 12.7197C16.9647 13.0588 16.6737 13.7615 16.857 14.4244L17.8208 14.1579ZM18.3711 14.8978C18.1708 14.6529 18.0349 14.4865 17.9405 14.356C17.8436 14.2222 17.8243 14.1705 17.8208 14.1579L16.857 14.4244C16.9097 14.6151 17.0167 14.7852 17.1303 14.9422C17.2462 15.1025 17.4048 15.2959 17.5971 15.531L18.3711 14.8978ZM18.3638 14.889L18.3637 14.889L17.6045 15.5398L17.6045 15.5398L18.3638 14.889ZM18.8116 15.5309C18.7208 15.3174 18.5573 15.1253 18.3711 14.8978L17.5971 15.531C17.8262 15.811 17.8703 15.8728 17.8913 15.9221L18.8116 15.5309ZM18.7464 16.8391C18.9674 16.4361 18.9915 15.9539 18.8116 15.5309L17.8913 15.9221C17.9513 16.0632 17.9433 16.2239 17.8696 16.3582L18.7464 16.8391ZM18.245 17.4253C18.4529 17.2173 18.6348 17.0425 18.7464 16.8391L17.8696 16.3582C17.8438 16.4053 17.7937 16.4623 17.5379 16.7182L18.245 17.4253ZM17.4259 18.2444L18.245 17.4253L17.5379 16.7182L16.7188 17.5373L17.4259 18.2444ZM17.4259 18.2444L17.4259 18.2444L16.7188 17.5373L16.7188 17.5373L17.4259 18.2444ZM16.8395 18.7459C17.043 18.6343 17.2179 18.4524 17.4259 18.2444L16.7188 17.5373C16.4629 17.7932 16.4058 17.8433 16.3587 17.8691L16.8395 18.7459ZM15.5316 18.8111C15.9545 18.9909 16.4365 18.9669 16.8395 18.7459L16.3587 17.8691C16.2244 17.9427 16.0637 17.9507 15.9227 17.8908L15.5316 18.8111ZM14.8982 18.3705C15.1259 18.5567 15.318 18.7204 15.5316 18.8111L15.9227 17.8908C15.8733 17.8698 15.8116 17.8257 15.5314 17.5965L14.8982 18.3705ZM14.8612 18.337L14.8612 18.337L15.5684 17.6299L15.5683 17.6299L14.8612 18.337ZM14.158 17.82C14.1707 17.8235 14.2223 17.8428 14.3562 17.9397C14.4867 18.0341 14.6532 18.17 14.8982 18.3704L15.5314 17.5965C15.2963 17.4041 15.1027 17.2455 14.9423 17.1294C14.7853 17.0158 14.6152 16.9088 14.4243 16.8561L14.158 17.82ZM13.5899 18.0553C13.7029 17.8559 13.9371 17.7589 14.158 17.82L14.4243 16.8561C13.7616 16.673 13.0591 16.9639 12.72 17.5621L13.5899 18.0553ZM13.4557 18.9681C13.4872 18.6532 13.5088 18.4392 13.5343 18.2801C13.5605 18.1169 13.5834 18.0667 13.5899 18.0553L12.72 17.5621C12.6223 17.7343 12.5777 17.9303 12.547 18.1217C12.5156 18.3172 12.4909 18.5662 12.4607 18.8686L13.4557 18.9681ZM13.3194 19.728C13.4063 19.5127 13.4264 19.261 13.4557 18.9681L12.4607 18.8686C12.4246 19.229 12.4121 19.3039 12.392 19.3537L13.3194 19.728ZM12.3486 20.6065C12.7897 20.4778 13.1474 20.1541 13.3194 19.728L12.392 19.3537C12.3347 19.4957 12.2155 19.6037 12.0685 19.6466L12.3486 20.6065ZM11.579 20.6666C11.8733 20.6666 12.1257 20.6716 12.3486 20.6065L12.0685 19.6466C12.0169 19.6616 11.9411 19.6666 11.579 19.6666V20.6666ZM10.4209 20.6666H11.579V19.6666H10.4209V20.6666ZM9.65161 20.6066C9.87442 20.6716 10.1267 20.6666 10.4209 20.6666V19.6666C10.059 19.6666 9.98319 19.6616 9.93166 19.6466L9.65161 20.6066ZM8.68066 19.7279C8.85262 20.154 9.21045 20.4779 9.65161 20.6066L9.93167 19.6466C9.78461 19.6037 9.66534 19.4957 9.60802 19.3537L8.68066 19.7279ZM8.54439 18.9683C8.57366 19.2611 8.59381 19.5126 8.68067 19.7279L9.60802 19.3537C9.58793 19.3039 9.57544 19.229 9.53942 18.8688L8.54439 18.9683ZM8.41023 18.0557C8.41671 18.0671 8.43957 18.1172 8.46576 18.2804C8.49129 18.4395 8.5129 18.6534 8.54439 18.9683L9.53942 18.8688C9.50919 18.5665 9.4845 18.3174 9.45313 18.122C9.42242 17.9306 9.37778 17.7346 9.28011 17.5624L8.41023 18.0557ZM7.84213 17.8203C8.06305 17.7593 8.29718 17.8563 8.41023 18.0557L9.28011 17.5624C8.94096 16.9643 8.23857 16.6733 7.57582 16.8565L7.84213 17.8203ZM7.10189 18.3708C7.34685 18.1704 7.51338 18.0345 7.64392 17.94C7.77783 17.8431 7.82947 17.8238 7.84213 17.8203L7.57582 16.8565C7.38497 16.9092 7.21482 17.0162 7.05779 17.1298C6.89739 17.2458 6.70382 17.4045 6.46866 17.5969L7.10189 18.3708ZM7.06261 18.3999L7.06262 18.3999L6.50792 17.5678L6.50791 17.5679L7.06261 18.3999ZM6.46845 18.8116C6.68206 18.7208 6.87419 18.5571 7.10188 18.3709L6.46864 17.5969C6.18849 17.8261 6.1267 17.8702 6.07731 17.8912L6.46845 18.8116ZM5.16057 18.7463C5.56352 18.9673 6.04551 18.9913 6.46845 18.8116L6.07731 17.8912C5.93633 17.9512 5.77566 17.9431 5.64135 17.8695L5.16057 18.7463ZM4.57413 18.2448C4.78215 18.4528 4.95705 18.6347 5.16057 18.7463L5.64135 17.8695C5.59428 17.8437 5.53719 17.7936 5.28123 17.5377L4.57413 18.2448ZM3.75514 17.4258L4.57413 18.2448L5.28123 17.5377L4.46225 16.7187L3.75514 17.4258ZM3.2536 16.8394C3.36519 17.0429 3.54712 17.2178 3.75514 17.4258L4.46225 16.7187C4.2063 16.4627 4.15624 16.4056 4.13044 16.3586L3.2536 16.8394ZM3.18837 15.5315C3.00861 15.9544 3.03265 16.4364 3.2536 16.8394L4.13044 16.3586C4.05679 16.2243 4.04877 16.0636 4.10869 15.9226L3.18837 15.5315ZM3.62906 14.898C3.44277 15.1257 3.27915 15.3179 3.18836 15.5315L4.10869 15.9226C4.12969 15.8732 4.17381 15.8114 4.40302 15.5313L3.62906 14.898ZM3.61605 14.9147L3.61604 14.9147L4.41604 15.5147L4.41605 15.5147L3.61605 14.9147ZM4.17956 14.1578C4.17606 14.1705 4.15676 14.2221 4.05989 14.356C3.96545 14.4866 3.82948 14.6531 3.62907 14.898L4.40303 15.5313C4.59543 15.2961 4.75407 15.1026 4.8701 14.9422C4.9837 14.7851 5.09071 14.615 5.14344 14.4242L4.17956 14.1578ZM3.94424 13.5897C4.14362 13.7028 4.2406 13.9369 4.17956 14.1578L5.14344 14.4242C5.32657 13.7614 5.03562 13.059 4.43748 12.7198L3.94424 13.5897ZM3.0316 13.4556C3.34651 13.4871 3.5604 13.5087 3.71947 13.5342C3.88265 13.5604 3.93281 13.5832 3.94424 13.5897L4.43748 12.7198C4.26525 12.6222 4.06928 12.5775 3.87792 12.5468C3.68247 12.5155 3.43343 12.4908 3.1311 12.4605L3.0316 13.4556ZM2.27211 13.3193C2.48734 13.4061 2.73889 13.4263 3.0316 13.4556L3.1311 12.4605C2.77095 12.4245 2.69606 12.412 2.64629 12.3919L2.27211 13.3193ZM1.39339 12.3483C1.52209 12.7895 1.84593 13.1473 2.27211 13.3193L2.64629 12.3919C2.50423 12.3346 2.39628 12.2153 2.35338 12.0683L1.39339 12.3483ZM1.33337 11.579C1.33337 11.8732 1.3284 12.1255 1.39339 12.3483L2.35338 12.0683C2.33835 12.0168 2.33337 11.941 2.33337 11.579H1.33337ZM1.33337 10.4209L1.33337 11.579H2.33337L2.33337 10.4209H1.33337ZM1.39343 9.65138C1.32839 9.87424 1.33337 10.1266 1.33337 10.4209H2.33337C2.33337 10.0588 2.33835 9.98305 2.35339 9.93151L1.39343 9.65138ZM2.27198 8.68059C1.84591 8.85255 1.52214 9.2103 1.39343 9.65138L2.35339 9.93151C2.3963 9.78448 2.50422 9.66523 2.64624 9.60791L2.27198 8.68059ZM3.03171 8.54426C2.7389 8.57354 2.48727 8.5937 2.27198 8.68059L2.64624 9.60791C2.69603 9.58782 2.77094 9.57532 3.13121 9.53929L3.03171 8.54426ZM3.08147 8.54178H3.08146V9.54178H3.08147V8.54178ZM3.94464 8.41005C3.93321 8.41653 3.88304 8.43941 3.71981 8.46561C3.56068 8.49115 3.34673 8.51276 3.03171 8.54426L3.13122 9.53929C3.43364 9.50905 3.68276 9.48435 3.87828 9.45297C4.06969 9.42225 4.26573 9.37759 4.438 9.27988L3.94464 8.41005ZM4.17992 7.84204C4.24092 8.06292 4.14397 8.297 3.94464 8.41005L4.438 9.27988C5.03597 8.94072 5.32684 8.23848 5.14384 7.57583L4.17992 7.84204ZM3.62923 7.10154C3.82972 7.34658 3.96574 7.51316 4.06021 7.64375C4.15712 7.77772 4.17643 7.82937 4.17992 7.84204L5.14384 7.57583C5.09112 7.38492 4.98407 7.21472 4.87044 7.05764C4.75437 6.89719 4.59567 6.70355 4.40319 6.4683L3.62923 7.10154ZM3.62723 7.09908L3.62724 7.09909L4.40518 6.47075L4.40518 6.47074L3.62723 7.09908ZM3.18833 6.46779C3.27913 6.6815 3.44284 6.87373 3.62923 7.10153L4.40318 6.46829C4.17385 6.188 4.12971 6.12618 4.10871 6.07676L3.18833 6.46779ZM3.25355 5.16023C3.03272 5.5631 3.00869 6.04495 3.18833 6.46779L4.10871 6.07676C4.04883 5.93581 4.05684 5.77519 4.13045 5.64091L3.25355 5.16023ZM3.75529 4.57353C3.54718 4.78164 3.36516 4.95661 3.25355 5.16023L4.13045 5.64091C4.15626 5.59382 4.20633 5.5367 4.4624 5.28064L3.75529 4.57353ZM3.75529 4.57353L3.75529 4.57353L4.4624 5.28064L4.4624 5.28064L3.75529 4.57353ZM4.57417 3.75465L3.75529 4.57353L4.4624 5.28064L5.28127 4.46176L4.57417 3.75465ZM5.16061 3.2531C4.95709 3.36469 4.78219 3.54663 4.57417 3.75465L5.28127 4.46176C5.53723 4.2058 5.59433 4.15575 5.64139 4.12994L5.16061 3.2531ZM6.46849 3.18787C6.04556 3.00812 5.56356 3.03216 5.16061 3.2531L5.64139 4.12994C5.77571 4.05629 5.93637 4.04828 6.07735 4.1082L6.46849 3.18787ZM7.102 3.62864C6.87427 3.44231 6.6821 3.27865 6.46849 3.18787L6.07735 4.1082C6.12675 4.12919 6.18856 4.17333 6.46877 4.4026L7.102 3.62864ZM7.8421 4.17907C7.82945 4.17557 7.77782 4.15626 7.64393 4.0594C7.51341 3.96497 7.34691 3.82902 7.102 3.62864L6.46877 4.4026C6.70389 4.59497 6.89742 4.75358 7.05778 4.8696C7.21476 4.98317 7.38485 5.09017 7.57563 5.14291L7.8421 4.17907ZM8.41031 3.94371C8.29726 4.14315 8.06306 4.24016 7.8421 4.17907L7.57563 5.14291C8.23852 5.32618 8.94112 5.03515 9.28027 4.43683L8.41031 3.94371ZM8.5444 3.03136C8.51292 3.34617 8.49133 3.55998 8.46581 3.71901C8.43963 3.88213 8.41678 3.93228 8.41031 3.94371L9.28027 4.43683C9.37787 4.26464 9.42248 4.06873 9.45318 3.87744C9.48453 3.68205 9.50922 3.43309 9.53944 3.13087L8.5444 3.03136ZM8.6806 2.27212C8.59381 2.48728 8.57366 2.73875 8.5444 3.03136L9.53944 3.13087C9.57544 2.77083 9.58793 2.69597 9.608 2.64621L8.6806 2.27212ZM9.65176 1.39323C9.21048 1.52192 8.85256 1.84583 8.6806 2.27212L9.608 2.64621C9.66532 2.50411 9.78462 2.39614 9.93172 2.35325L9.65176 1.39323ZM10.4208 1.33325C10.1267 1.33325 9.8745 1.32828 9.65176 1.39323L9.93172 2.35324C9.98322 2.33822 10.059 2.33325 10.4208 2.33325V1.33325ZM11.5792 1.33325H10.4208V2.33325H11.5792V1.33325ZM12.3485 1.39327C12.1256 1.32828 11.8733 1.33325 11.5792 1.33325V2.33325C11.9411 2.33325 12.0169 2.33823 12.0684 2.35326L12.3485 1.39327ZM13.3194 2.27199C13.1475 1.84581 12.7896 1.52197 12.3485 1.39327L12.0684 2.35326C12.2155 2.39616 12.3347 2.5041 12.3921 2.64616L13.3194 2.27199ZM14.1667 10.9999C14.1667 12.7488 12.7489 14.1666 11 14.1666V15.1666C13.3012 15.1666 15.1667 13.3011 15.1667 10.9999H14.1667ZM11 7.83325C12.7489 7.83325 14.1667 9.25102 14.1667 10.9999H15.1667C15.1667 8.69873 13.3012 6.83325 11 6.83325V7.83325ZM7.83337 10.9999C7.83337 9.25102 9.25114 7.83325 11 7.83325V6.83325C8.69885 6.83325 6.83337 8.69873 6.83337 10.9999H7.83337ZM11 14.1666C9.25114 14.1666 7.83337 12.7488 7.83337 10.9999H6.83337C6.83337 13.3011 8.69885 15.1666 11 15.1666V14.1666Z" fill="#222222"/>
</svg>
