<svg width="1440" height="1086" viewBox="0 0 1440 1086" fill="none" xmlns="http://www.w3.org/2000/svg">
<path d="M690.616 658.282C691.248 656.511 693.752 656.511 694.384 658.282L697.078 665.837C697.362 666.633 698.116 667.165 698.962 667.165H707.254C709.236 667.165 710.011 669.739 708.358 670.833L701.979 675.055C701.212 675.563 700.891 676.528 701.2 677.395L703.71 684.433C704.355 686.244 702.325 687.834 700.722 686.773L693.604 682.061C692.935 681.618 692.065 681.618 691.396 682.061L684.278 686.773C682.675 687.834 680.645 686.244 681.29 684.433L683.8 677.395C684.109 676.528 683.788 675.563 683.021 675.055L676.642 670.833C674.989 669.739 675.764 667.165 677.746 667.165H686.038C686.884 667.165 687.638 666.633 687.922 665.837L690.616 658.282Z" fill="#1B309A"/>
</svg>
