<svg width="1440" height="1086" viewBox="0 0 1440 1086" fill="none" xmlns="http://www.w3.org/2000/svg">
<path d="M825.616 658.282C826.248 656.511 828.752 656.511 829.384 658.282L832.078 665.837C832.362 666.633 833.116 667.165 833.962 667.165H842.254C844.236 667.165 845.011 669.739 843.358 670.833L836.979 675.055C836.212 675.563 835.891 676.528 836.2 677.395L838.71 684.433C839.355 686.244 837.325 687.834 835.722 686.773L828.604 682.061C827.935 681.618 827.065 681.618 826.396 682.061L819.278 686.773C817.675 687.834 815.645 686.244 816.29 684.433L818.8 677.395C819.109 676.528 818.788 675.563 818.021 675.055L811.642 670.833C809.989 669.739 810.764 667.165 812.746 667.165H821.038C821.884 667.165 822.638 666.633 822.922 665.837L825.616 658.282Z" fill="#1B309A"/>
</svg>
