<svg width="19" height="21" viewBox="0 0 19 21" fill="none" xmlns="http://www.w3.org/2000/svg">
<path fill-rule="evenodd" clip-rule="evenodd" d="M11.875 1.96875C11.875 1.7947 11.8124 1.62778 11.7011 1.50471C11.5897 1.38164 11.4387 1.3125 11.2812 1.3125H7.71875C7.56128 1.3125 7.41025 1.38164 7.29891 1.50471C7.18756 1.62778 7.125 1.7947 7.125 1.96875V3.28125C7.125 3.4553 7.18756 3.62222 7.29891 3.74529C7.41025 3.86836 7.56128 3.9375 7.71875 3.9375H11.2812C11.4387 3.9375 11.5897 3.86836 11.7011 3.74529C11.8124 3.62222 11.875 3.4553 11.875 3.28125V1.96875ZM5.9375 1.96875C5.9375 1.44661 6.12517 0.945846 6.45922 0.576634C6.79326 0.207421 7.24633 0 7.71875 0L11.2812 0C11.7537 0 12.2067 0.207421 12.5408 0.576634C12.8748 0.945846 13.0625 1.44661 13.0625 1.96875V3.28125C13.0625 3.8034 12.8748 4.30415 12.5408 4.67337C12.2067 5.04258 11.7537 5.25 11.2812 5.25H7.71875C7.24633 5.25 6.79326 5.04258 6.45922 4.67337C6.12517 4.30415 5.9375 3.8034 5.9375 3.28125V1.96875ZM3.5625 1.96875H4.75V3.28125H3.5625C3.24756 3.28125 2.94551 3.41953 2.72281 3.66567C2.50011 3.91181 2.375 4.24565 2.375 4.59375V18.375C2.375 18.7231 2.50011 19.0569 2.72281 19.3031C2.94551 19.5492 3.24756 19.6875 3.5625 19.6875H15.4375C15.7524 19.6875 16.0545 19.5492 16.2772 19.3031C16.4999 19.0569 16.625 18.7231 16.625 18.375V4.59375C16.625 4.24565 16.4999 3.91181 16.2772 3.66567C16.0545 3.41953 15.7524 3.28125 15.4375 3.28125H14.25V1.96875H15.4375C16.0674 1.96875 16.6715 2.24531 17.1169 2.73759C17.5623 3.22988 17.8125 3.89756 17.8125 4.59375V18.375C17.8125 19.0712 17.5623 19.7389 17.1169 20.2312C16.6715 20.7234 16.0674 21 15.4375 21H3.5625C2.93261 21 2.32852 20.7234 1.88312 20.2312C1.43772 19.7389 1.1875 19.0712 1.1875 18.375V4.59375C1.1875 3.89756 1.43772 3.22988 1.88312 2.73759C2.32852 2.24531 2.93261 1.96875 3.5625 1.96875ZM11.8501 7.02975C11.8121 6.89015 11.7333 6.76848 11.6259 6.68392C11.5184 6.59937 11.3886 6.55673 11.2569 6.56275C11.1251 6.56877 10.9989 6.62309 10.8982 6.71716C10.7975 6.81122 10.7279 6.93967 10.7006 7.08225L9.405 13.7681L8.28875 9.65344C8.25628 9.53419 8.19379 9.42761 8.10856 9.34615C8.02334 9.2647 7.91891 9.21172 7.80746 9.19342C7.69601 9.17511 7.58215 9.19223 7.47918 9.24278C7.37621 9.29333 7.28837 9.37521 7.22594 9.47888L5.0255 13.125H4.15625C3.99878 13.125 3.84776 13.1941 3.73641 13.3172C3.62506 13.4403 3.5625 13.6072 3.5625 13.7812C3.5625 13.9553 3.62506 14.1222 3.73641 14.2453C3.84776 14.3684 3.99878 14.4375 4.15625 14.4375H5.34375C5.44153 14.4374 5.53779 14.4107 5.62396 14.3596C5.71014 14.3086 5.78358 14.2348 5.83775 14.1448L7.51213 11.3689L8.93119 16.5952C8.9691 16.7348 9.04799 16.8565 9.15539 16.9411C9.2628 17.0256 9.39262 17.0683 9.52438 17.0622C9.65614 17.0562 9.78233 17.0019 9.88306 16.9078C9.98379 16.8138 10.0533 16.6853 10.0807 16.5427L11.3763 9.85688L12.4925 13.9716C12.5295 14.1067 12.605 14.2249 12.7077 14.3089C12.8104 14.3928 12.9348 14.4379 13.0625 14.4375H14.8438C15.0012 14.4375 15.1522 14.3684 15.2636 14.2453C15.3749 14.1222 15.4375 13.9553 15.4375 13.7812C15.4375 13.6072 15.3749 13.4403 15.2636 13.3172C15.1522 13.1941 15.0012 13.125 14.8438 13.125H13.5042L11.8501 7.02975Z" fill="black"/>
</svg>
