<svg width="22" height="22" viewBox="0 0 22 22" fill="none" xmlns="http://www.w3.org/2000/svg">
<g clip-path="url(#clip0_598_1977)">
<path d="M17.875 20.625H16.5V18.5625C16.4989 17.6511 16.1364 16.7774 15.492 16.133C14.8476 15.4886 13.9739 15.1261 13.0625 15.125H8.9375C8.02615 15.1261 7.15243 15.4886 6.50801 16.133C5.86358 16.7774 5.50107 17.6511 5.5 18.5625V20.625H4.125V18.5625C4.12649 17.2866 4.634 16.0634 5.5362 15.1612C6.43839 14.259 7.6616 13.7515 8.9375 13.75H13.0625C14.3384 13.7515 15.5616 14.259 16.4638 15.1612C17.366 16.0634 17.8735 17.2866 17.875 18.5625V20.625Z" fill="black"/>
<path d="M3.4375 4.125C3.25516 4.125 3.0803 4.19743 2.95136 4.32636C2.82243 4.4553 2.75 4.63016 2.75 4.8125V11H4.125V4.8125C4.125 4.63016 4.05257 4.4553 3.92364 4.32636C3.7947 4.19743 3.61984 4.125 3.4375 4.125Z" fill="black"/>
<path d="M2.75 1.375V2.75H6.1875V7.5625C6.1875 8.83885 6.69453 10.0629 7.59705 10.9655C8.49957 11.868 9.72365 12.375 11 12.375C12.2764 12.375 13.5004 11.868 14.403 10.9655C15.3055 10.0629 15.8125 8.83885 15.8125 7.5625V2.75H19.25V1.375H2.75ZM7.5625 2.75H14.4375V4.8125H7.5625V2.75ZM11 11C10.0883 11 9.21398 10.6378 8.56932 9.99318C7.92466 9.34852 7.5625 8.47418 7.5625 7.5625V6.1875H14.4375V7.5625C14.4375 8.47418 14.0753 9.34852 13.4307 9.99318C12.786 10.6378 11.9117 11 11 11Z" fill="black"/>
</g>
<defs>
<clipPath id="clip0_598_1977">
<rect width="22" height="22" fill="white"/>
</clipPath>
</defs>
</svg>
