<svg xmlns="http://www.w3.org/2000/svg" id="mentor" viewBox="0 0 64 64">
  <path d="m59.4,39.64c.98-.91,1.6-2.2,1.6-3.64v-4c0-2.76-2.24-5-5-5h-2c-2.76,0-5,2.24-5,5v4c0,1.4.59,2.67,1.52,3.58-.55.29-1.06.68-1.48,1.17l-4.5,5.25h-4.54c-2.41,0-4.43,1.72-4.9,4h-6.2c-.46-2.28-2.48-4-4.9-4h-4.54l-4.5-5.25c-.42-.49-.92-.88-1.48-1.17.93-.91,1.52-2.17,1.52-3.58v-4c0-2.76-2.24-5-5-5h-2c-2.76,0-5,2.24-5,5v4c0,1.44.62,2.73,1.6,3.64-1.54.85-2.6,2.48-2.6,4.36v13c0,.55.45,1,1,1s1-.45,1-1v-13c0-1.65,1.35-3,3-3h4.16c.88,0,1.71.38,2.28,1.05l4.8,5.6c.19.22.47.35.76.35h5c1.3,0,2.42.84,2.83,2h-8.91c-.92,0-1.77-.41-2.34-1.13l-2.8-3.5c-.34-.43-.97-.5-1.41-.16-.43.34-.5.97-.16,1.41l1.8,2.26s-.02.08-.02.12v8c0,.55.45,1,1,1h36c.55,0,1-.45,1-1v-8s-.02-.08-.02-.12l1.8-2.26c.35-.43.28-1.06-.16-1.41-.43-.34-1.06-.28-1.41.16l-2.8,3.5c-.57.72-1.43,1.13-2.34,1.13h-8.91c.41-1.16,1.52-2,2.83-2h5c.29,0,.57-.13.76-.35l4.8-5.6c.57-.67,1.4-1.05,2.28-1.05h4.16c1.65,0,3,1.35,3,3v13c0,.55.45,1,1,1s1-.45,1-1v-13c0-1.88-1.06-3.5-2.6-4.36ZM8,29h2c1.3,0,2.4.84,2.82,2h-1.75c-1.67,0-3.13,1.13-3.53,2.76-.18.73-.84,1.24-1.59,1.24h-.94v-3c0-1.65,1.35-3,3-3Zm0,10c-1.3,0-2.4-.84-2.82-2h.75c1.67,0,3.13-1.13,3.53-2.76.18-.73.84-1.24,1.59-1.24h1.94v3c0,1.65-1.35,3-3,3h-2Zm38.08,13h2.92v4H15v-4h31.08Zm7.92-23h2c1.65,0,3,1.35,3,3v3h-.94c-.75,0-1.41-.51-1.59-1.24-.41-1.62-1.86-2.76-3.53-2.76h-1.75c.41-1.16,1.51-2,2.82-2Zm0,10c-1.65,0-3-1.35-3-3v-3h1.94c.75,0,1.41.51,1.59,1.24.41,1.62,1.86,2.76,3.53,2.76h.75c-.41,1.16-1.51,2-2.82,2h-2Z"></path>
  <path d="M25.46 25.84c.98.73 1.54 1.78 1.54 2.89v3.28c0 1.3.84 2.4 2 2.82v.18c0 1.65 1.35 3 3 3s3-1.35 3-3v-.18c1.16-.41 2-1.51 2-2.82v-3.41c0-1.04.53-2.02 1.45-2.69 2.85-2.06 4.55-5.39 4.55-8.9 0-3.12-1.34-6.11-3.66-8.2-2.33-2.08-5.45-3.08-8.59-2.73-4.91.54-8.97 4.49-9.64 9.38-.55 4.02 1.11 8 4.35 10.4Zm6.54 10.16c-.55 0-1-.45-1-1h2c0 .55-.45 1-1 1Zm3-4c0 .55-.45 1-1 1h-4c-.55 0-1-.45-1-1v-2h6v2Zm-11.91-16.28c.55-3.99 3.86-7.22 7.88-7.66 2.61-.29 5.1.51 7.03 2.24 1.91 1.71 3 4.15 3 6.71 0 2.87-1.39 5.6-3.72 7.29-1.28.93-2.07 2.26-2.24 3.72h-2.03v-7.59l2.71-2.71c.39-.39.39-1.02 0-1.41s-1.02-.39-1.41 0l-2.29 2.29-2.29-2.29c-.39-.39-1.02-.39-1.41 0s-.39 1.02 0 1.41l2.71 2.71v7.59h-2.05c-.2-1.47-1.02-2.82-2.3-3.77-2.65-1.96-4.01-5.22-3.56-8.52ZM45 17c0 .55.45 1 1 1h4c.55 0 1-.45 1-1s-.45-1-1-1h-4c-.55 0-1 .45-1 1ZM45 12c.15 0 .3-.03.45-.11l4-2c.49-.25.69-.85.45-1.34-.25-.49-.85-.69-1.34-.45l-4 2c-.49.25-.69.85-.45 1.34.18.35.53.55.9.55ZM44.55 23.89l4 2c.14.07.3.11.45.11.37 0 .72-.2.9-.55.25-.49.05-1.09-.45-1.34l-4-2c-.5-.25-1.1-.05-1.34.45-.25.49-.05 1.09.45 1.34ZM14 18h4c.55 0 1-.45 1-1s-.45-1-1-1h-4c-.55 0-1 .45-1 1s.45 1 1 1ZM18.55 22.1l-4 2c-.49.25-.69.85-.45 1.34.18.35.53.55.9.55.15 0 .3-.03.45-.11l4-2c.49-.25.69-.85.45-1.34-.25-.49-.85-.69-1.34-.45ZM14.55 9.89l4 2c.14.07.3.11.45.11.37 0 .72-.2.9-.55.25-.49.05-1.09-.45-1.34l-4-2c-.49-.25-1.09-.05-1.34.45-.25.49-.05 1.09.45 1.34Z"></path>
</svg>
