<svg xmlns="http://www.w3.org/2000/svg" viewBox="0 0 128 128" id="detective">
  <path d="m54.75 60.58-1.5-1.322C51.155 61.636 48.148 63 45 63s-6.155-1.364-8.25-3.742l-1.5 1.322C37.724 63.389 41.277 65 45 65s7.276-1.611 9.75-4.42zM22.174 20.796l.407-1.968 1.958.405-.407 1.968zM26.073 11.825A6.075 6.075 0 0 1 31.999 7V5c-3.799 0-7.115 2.7-7.885 6.42l-1.158 5.6 1.959.405 1.158-5.6z"></path>
  <path d="m79.476 81.598-10.478-2.907a25.814 25.814 0 0 0-10.997-9.335v-.923c3.873-3.065 6.641-7.445 7.61-12.464C70.288 55.653 74 51.756 74 47v-1.343c7.034-1.33 15-3.707 15-7.657 0-3.013-4.505-5.483-13.39-7.343a87.152 87.152 0 0 0-1.731-.342l-4.077-19.706C68.65 5.042 63.688 1 58.001 1a12.08 12.08 0 0 0-7.716 2.793l-.62.518C48.357 5.4 46.701 6 45 6s-3.357-.6-4.664-1.688l-.621-.518A12.075 12.075 0 0 0 31.999 1c-5.687 0-10.649 4.042-11.802 9.609L16.12 30.315c-.588.111-1.167.224-1.731.342C5.505 32.517 1 34.987 1 38c0 3.95 7.966 6.327 15 7.657V47c0 4.727 3.665 8.606 8.302 8.965A20.387 20.387 0 0 0 32 68.762v.594a25.795 25.795 0 0 0-10.997 9.335l-10.478 2.907C4.917 83.153 1 88.305 1 94.124V127h88V94.124c0-5.819-3.917-10.971-9.524-12.526zm-2.901 1.27-3.359 8.396A30.896 30.896 0 0 0 71 102.777V125H54.766l11.315-18.857-3.842-13.444 10.937-2.982-.475-2.214a25.777 25.777 0 0 0-2.265-6.337l6.139 1.702zm-5.829 5.053.078.363-11.063 3.018 4.158 14.556L52.434 125h-4.146l11.611-45.475c.067-.268.101-.541.101-.814 0-1.342-.79-2.519-2-3.034v-4.123a23.831 23.831 0 0 1 12.746 16.367zm-37.913-10.41 10.512 7.533-8.113 6.49-3.191-12.499a1.284 1.284 0 0 1 .792-1.524zM45 86.28l5.789 4.632L47.52 95h-5.04l-3.27-4.088L45 86.28zm12.167-8.769a1.283 1.283 0 0 1 .793 1.521l-3.192 12.502-8.113-6.49 10.512-7.533zm-5.312 25.433-2.71-6.775 3.207-4.008 1.874 1.499-2.371 9.284zM37.649 92.162l3.207 4.008-2.71 6.774-2.37-9.283 1.873-1.499zM42.677 97h4.646l3.692 9.232L46.223 125h-2.447l-4.792-18.769L42.677 97zM56 75.886 45 83.77l-11-7.884v-5.768A20.244 20.244 0 0 0 44.4 73h.502c4.074 0 7.869-1.175 11.098-3.174v6.06zM55 39c-3.859 0-7 3.14-7 7v6c0 1.654-1.346 3-3 3s-3-1.346-3-3v-6c0-3.86-3.141-7-7-7-2.785 0-5.188 1.639-6.315 4H26v-6.927C30.634 35.456 37.102 35 45 35s14.366.456 19 1.073V43h-2.685c-1.127-2.361-3.53-4-6.315-4zm5 7c0 2.757-2.243 5-5 5s-5-2.243-5-5 2.243-5 5-5 5 2.243 5 5zm-20 0c0 2.757-2.243 5-5 5s-5-2.243-5-5 2.243-5 5-5 5 2.243 5 5zm-16-7.941a8.992 8.992 0 0 0-6 3.297v-3.237c.471-.547 2.564-1.189 6-1.748v1.688zm48 3.297a8.992 8.992 0 0 0-6-3.297V36.37c3.436.559 5.529 1.201 6 1.748v3.238zm-6.099 12.579C65.96 53.297 66 52.653 66 52V40.08c3.386.488 6 3.401 6 6.92 0 3.554-2.664 6.491-6.099 6.935zm-43.745-42.92C23.117 6.371 27.256 3 31.999 3c2.347 0 4.632.827 6.435 2.33l.622.518A9.3 9.3 0 0 0 45 8a9.304 9.304 0 0 0 5.945-2.152l.621-.518A10.067 10.067 0 0 1 58.001 3c4.743 0 8.882 3.371 9.843 8.015l2.622 12.674C62.907 22.587 54.15 22 45 22s-17.907.587-25.466 1.689l2.622-12.674zm-3.053 14.757C26.727 24.615 35.654 24 45 24s18.273.615 25.897 1.772l.863 4.171C64.153 28.685 54.826 28 45 28s-19.153.685-26.76 1.943l.863-4.171zM3 38c0-3.34 15.979-8 42-8s42 4.66 42 8c0 1.178-2.794 3.639-13 5.617V38c0-1.248-1.076-2.678-9.06-3.818C59.606 33.419 52.524 33 45 33s-14.606.419-19.94 1.182C17.076 35.322 16 36.752 16 38v5.617C5.794 41.639 3 39.178 3 38zm15 9c0-3.519 2.614-6.432 6-6.92V52.6c0 .449.039.889.067 1.331C20.648 53.472 18 50.543 18 47zm8 5.6V45h2.08c-.047.328-.08.66-.08 1 0 3.86 3.141 7 7 7 1.958 0 3.728-.81 5-2.111V52c0 2.757 2.243 5 5 5s5-2.243 5-5v-1.111A6.973 6.973 0 0 0 55 53c3.859 0 7-3.14 7-7 0-.34-.033-.672-.08-1H64v7c0 10.477-8.567 19-19.098 19H44.4C34.254 71 26 62.746 26 52.6zm6 18.955v4.123c-1.21.515-2 1.691-2 3.034 0 .273.034.546.103.816L41.713 125h-4.146l-11.485-19.143 4.158-14.556-11.063-3.018.078-.363A23.824 23.824 0 0 1 32 71.555zM17.299 87.502l-.475 2.214 10.937 2.982-3.842 13.444L35.234 125H19v-22.223c0-3.96-.746-7.834-2.217-11.513l-3.359-8.396 6.139-1.703a25.816 25.816 0 0 0-2.264 6.337zM3 94.124c0-4.924 3.314-9.283 8.06-10.6l.426-.118 3.441 8.601A28.905 28.905 0 0 1 17 102.777V125H3V94.124zM87 125H73v-22.223c0-3.705.698-7.329 2.074-10.77l3.441-8.601.426.118C83.686 84.841 87 89.2 87 94.124V125z"></path>
  <path d="M127 62c0-13.785-11.215-25-25-25S77 48.215 77 62c0 12.073 8.603 22.174 20 24.497v5.687A2.996 2.996 0 0 0 95 95v25c0 3.86 3.141 7 7 7s7-3.14 7-7V95a2.996 2.996 0 0 0-2-2.816v-5.687c11.397-2.323 20-12.424 20-24.497zm-48 0c0-12.682 10.317-23 23-23s23 10.318 23 23-10.317 23-23 23-23-10.318-23-23zm28 58c0 2.757-2.243 5-5 5s-5-2.243-5-5V95c0-.551.448-1 1-1h8c.552 0 1 .449 1 1v25zm-2-28h-6v-5.186c.984.118 1.984.186 3 .186s2.016-.068 3-.186V92z"></path>
  <path d="M121 62c0-10.477-8.523-19-19-19s-19 8.523-19 19 8.523 19 19 19 19-8.523 19-19zm-36 0c0-9.374 7.626-17 17-17s17 7.626 17 17-7.626 17-17 17-17-7.626-17-17z"></path>
  <path d="M87 62h2c0-5.71 3.818-10.835 9.285-12.462l-.57-1.917C91.406 49.499 87 55.412 87 62zm15-15c-.716 0-1.437.051-2.142.152l.283 1.979A13.249 13.249 0 0 1 102 49v-2zM101 96h2v2h-2zM101 100h2v2h-2zM101 104h2v2h-2z"></path>
</svg>
