<svg width="10" height="10" viewBox="0 0 10 10" fill="none" xmlns="http://www.w3.org/2000/svg">
<g clip-path="url(#clip0_603_2062)">
<path d="M8.43742 0.624952C8.18878 0.624952 7.95032 0.723724 7.77451 0.89954C7.59869 1.07535 7.49992 1.31381 7.49992 1.56245C7.49992 1.81109 7.59869 2.04955 7.77451 2.22536C7.95032 2.40118 8.18878 2.49995 8.43742 2.49995C8.68606 2.49995 8.92452 2.40118 9.10033 2.22536C9.27615 2.04955 9.37492 1.81109 9.37492 1.56245C9.37492 1.31381 9.27615 1.07535 9.10033 0.89954C8.92452 0.723724 8.68606 0.624952 8.43742 0.624952ZM6.87492 1.56245C6.87488 1.19585 7.00374 0.840899 7.23896 0.559709C7.47419 0.278519 7.8008 0.0889918 8.16165 0.0242878C8.5225 -0.0404162 8.89461 0.023823 9.21288 0.205766C9.53115 0.387709 9.77531 0.67577 9.90264 1.01955C10.03 1.36333 10.0324 1.74094 9.90942 2.08631C9.78646 2.43168 9.54598 2.72282 9.23005 2.90879C8.91411 3.09476 8.54285 3.16372 8.18121 3.10361C7.81957 3.04349 7.49057 2.85813 7.2518 2.57995L3.05305 4.52995C3.14953 4.83586 3.14953 5.16405 3.05305 5.46995L7.2518 7.41995C7.5042 7.12641 7.85659 6.93702 8.24067 6.88848C8.62475 6.83995 9.01317 6.93573 9.33066 7.15726C9.64815 7.37879 9.87209 7.7103 9.95909 8.08753C10.0461 8.46476 9.98994 8.86086 9.80154 9.19906C9.61314 9.53726 9.30589 9.79348 8.93935 9.91805C8.5728 10.0426 8.17306 10.0267 7.8176 9.87333C7.46213 9.71998 7.17625 9.44012 7.01537 9.088C6.85448 8.73588 6.83005 8.33656 6.9468 7.96745L2.74805 6.01745C2.54019 6.25968 2.26314 6.43245 1.95416 6.51251C1.64518 6.59256 1.31909 6.57607 1.01976 6.46525C0.720429 6.35443 0.462219 6.1546 0.279864 5.89263C0.0975084 5.63067 -0.000244141 5.31914 -0.000244141 4.99995C-0.000244141 4.68077 0.0975084 4.36924 0.279864 4.10727C0.462219 3.84531 0.720429 3.64547 1.01976 3.53465C1.31909 3.42383 1.64518 3.40734 1.95416 3.4874C2.26314 3.56746 2.54019 3.74022 2.74805 3.98245L6.9468 2.03245C6.899 1.88037 6.87476 1.72187 6.87492 1.56245ZM1.56242 4.06245C1.31378 4.06245 1.07532 4.16122 0.899509 4.33704C0.723694 4.51286 0.624922 4.75131 0.624922 4.99995C0.624922 5.24859 0.723694 5.48705 0.899509 5.66286C1.07532 5.83868 1.31378 5.93745 1.56242 5.93745C1.81106 5.93745 2.04952 5.83868 2.22533 5.66286C2.40115 5.48705 2.49992 5.24859 2.49992 4.99995C2.49992 4.75131 2.40115 4.51286 2.22533 4.33704C2.04952 4.16122 1.81106 4.06245 1.56242 4.06245ZM8.43742 7.49995C8.18878 7.49995 7.95032 7.59872 7.77451 7.77454C7.59869 7.95035 7.49992 8.18881 7.49992 8.43745C7.49992 8.68609 7.59869 8.92455 7.77451 9.10036C7.95032 9.27618 8.18878 9.37495 8.43742 9.37495C8.68606 9.37495 8.92452 9.27618 9.10033 9.10036C9.27615 8.92455 9.37492 8.68609 9.37492 8.43745C9.37492 8.18881 9.27615 7.95035 9.10033 7.77454C8.92452 7.59872 8.68606 7.49995 8.43742 7.49995Z" fill="black"/>
</g>
<defs>
<clipPath id="clip0_603_2062">
<rect width="10" height="10" fill="white"/>
</clipPath>
</defs>
</svg>
