<svg width="1440" height="1086" viewBox="0 0 1440 1086" fill="none" xmlns="http://www.w3.org/2000/svg">
<path d="M871.087 658.45C871.561 657.122 873.439 657.122 873.913 658.45L876.607 666.005C876.962 667 877.905 667.665 878.962 667.665H887.254C888.741 667.665 889.322 669.595 888.082 670.416L881.703 674.639C880.745 675.273 880.343 676.48 880.729 677.562L883.239 684.602C883.723 685.959 882.2 687.152 880.998 686.356L873.88 681.645C873.043 681.091 871.957 681.091 871.12 681.645L864.002 686.356C862.8 687.152 861.277 685.959 861.761 684.602L864.271 677.562C864.657 676.48 864.255 675.273 863.297 674.639L856.918 670.416C855.678 669.595 856.259 667.665 857.746 667.665H866.038C867.095 667.665 868.038 667 868.393 666.005L871.087 658.45Z" stroke="#1B309A"/>
</svg>
