<svg width="1440" height="1086" viewBox="0 0 1440 1086" fill="none" xmlns="http://www.w3.org/2000/svg">
<path d="M780.616 658.282C781.248 656.511 783.752 656.511 784.384 658.282L787.078 665.837C787.362 666.633 788.116 667.165 788.962 667.165H797.254C799.236 667.165 800.011 669.739 798.358 670.833L791.979 675.055C791.212 675.563 790.891 676.528 791.2 677.395L793.71 684.433C794.355 686.244 792.325 687.834 790.722 686.773L783.604 682.061C782.935 681.618 782.065 681.618 781.396 682.061L774.278 686.773C772.675 687.834 770.645 686.244 771.29 684.433L773.8 677.395C774.109 676.528 773.788 675.563 773.021 675.055L766.642 670.833C764.989 669.739 765.764 667.165 767.746 667.165H776.038C776.884 667.165 777.638 666.633 777.922 665.837L780.616 658.282Z" fill="#1B309A"/>
</svg>
