<svg width="1440" height="1086" viewBox="0 0 1440 1086" fill="none" xmlns="http://www.w3.org/2000/svg">
<path d="M735.616 658.282C736.248 656.511 738.752 656.511 739.384 658.282L742.078 665.837C742.362 666.633 743.116 667.165 743.962 667.165H752.254C754.236 667.165 755.011 669.739 753.358 670.833L746.979 675.055C746.212 675.563 745.891 676.528 746.2 677.395L748.71 684.433C749.355 686.244 747.325 687.834 745.722 686.773L738.604 682.061C737.935 681.618 737.065 681.618 736.396 682.061L729.278 686.773C727.675 687.834 725.645 686.244 726.29 684.433L728.8 677.395C729.109 676.528 728.788 675.563 728.021 675.055L721.642 670.833C719.989 669.739 720.764 667.165 722.746 667.165H731.038C731.884 667.165 732.638 666.633 732.922 665.837L735.616 658.282Z" fill="#1B309A"/>
</svg>
