<svg xmlns="http://www.w3.org/2000/svg" width="124" height="33" viewBox="0 0 124 33" fill="#635bff">
  <path d="M17.9 7.5c-4.4 0-8 3.3-8 7.8 0 5.1 4.5 7.3 8 7.3 2 0 3.8-.5 5.2-1.3v-5.2c-1.4 1.1-3 1.7-4.7 1.7-2 0-3.7-1-3.7-2.8h9.7c.2-.7.3-1.4.3-2.2 0-4-2.9-7.3-8-7.3h.2zm-.7 3.2c1.2 0 2.1.7 2.5 2h-5.2c.3-1.3 1.4-2 2.7-2zM40.9 7.5c-1.8 0-3.3.7-4.3 1.9l-.3-1.5h-4.2v21.4l4.8-1V23c1 .6 2.2 1 3.6 1 3.7 0 7-2.9 7-8.3 0-4.2-2.7-8.1-7-8.1h.4zm-1.2 12.3c-1.2 0-2.1-.4-2.8-1v-6.2c.7-.7 1.6-1 2.7-1 2 0 3.4 2 3.4 4 0 2.2-1.3 4.2-3.3 4.2zM54.2 7.5c-4.8 0-8 3.5-8 8.2 0 5.3 3.7 8.2 8.7 8.2 2.5 0 4.4-.6 5.5-1.4l-.2-3.5c-1.3.7-2.7 1.1-4.6 1.1-1.9 0-4-.7-4.5-3.2h10.6v-1.9c0-4.6-2.9-7.5-7.5-7.5zm-3 6.6c.3-1.5 1.3-3 3.1-3 1.7 0 2.7 1.4 2.7 3h-5.8zM67.3 2.7l-4.8 1v19.6h4.8V2.7zm8.4 0l-4.8 1v19.6h4.8V2.7zm8.3 4.8c-4.8 0-8.1 3.5-8.1 8.2 0 5.3 3.7 8.2 8.7 8.2 2.5 0 4.4-.6 5.5-1.4l-.2-3.5c-1.3.7-2.7 1.1-4.6 1.1-1.9 0-4-.7-4.5-3.2h10.6v-1.9c0-4.6-2.9-7.5-7.5-7.5h.1zm-3 6.6c.3-1.5 1.3-3 3.1-3 1.7 0 2.7 1.4 2.7 3h-5.8zm19.6-6.6c-1.9 0-3.1.9-3.9 1.5l-.3-1h-4.2v16.3h4.8v-12c.8-.6 1.8-1 3-1 .3 0 .6 0 .9.1l.3-3.7c-.2-.1-.4-.1-.6-.1zm19.3 12.3c0 4.6-1.9 6.5-5.9 6.5-1.9 0-3.3-.4-4.1-.7l-.2-3.9c.8.4 2 .7 3.3.7 1.5 0 2.1-.6 2.1-2.2v-.2c-.7.3-1.5.5-2.7.5-3.7 0-6.2-2.8-6.2-6.8 0-4.4 2.8-7.3 7.3-7.3 1.5 0 3 .3 4.1.7l2.1 12.7h.2zm-4.7-8.2c-.3-.1-.6-.1-1-.1-1.8 0-2.9 1.5-2.9 3.5 0 1.7.8 2.9 2.4 2.9.7 0 1.3-.2 1.7-.4l-.2-5.9z"/>
</svg> 