<svg width="20" height="20" viewBox="0 0 20 20" fill="none" xmlns="http://www.w3.org/2000/svg">
<g clip-path="url(#clip0_598_1973)">
<path fill-rule="evenodd" clip-rule="evenodd" d="M17.123 15.2798C17.023 15.2484 16.9196 15.2288 16.815 15.2215C16.887 14.9499 16.9012 14.6664 16.8567 14.389C16.818 14.1488 16.7272 13.9199 16.5905 13.7185C16.454 13.5172 16.2748 13.3482 16.0658 13.2235C15.839 13.0874 15.5853 13.002 15.3224 12.9733C15.0594 12.9445 14.7933 12.9731 14.5424 13.057C13.9426 13.2342 13.379 13.516 12.8774 13.8895C12.5277 14.1393 12.2364 14.4057 11.995 14.5639C11.4705 14.9218 10.5215 15.4795 10.0969 15.7293C10.041 15.7668 9.98813 15.8085 9.93871 15.8542C9.61663 15.8329 9.29813 15.7743 8.98962 15.6794C8.52262 15.5953 8.0795 15.4107 7.69098 15.1383V15.0217C7.74445 14.9234 7.80867 14.8312 7.88244 14.7469C8.76488 13.7314 9.64729 13.2485 9.94704 12.6324C10.0633 12.3878 10.1136 12.117 10.0932 11.8469C10.0728 11.5769 9.98221 11.3167 9.83046 11.0924C9.68188 10.8534 9.46263 10.6664 9.20304 10.5576C8.94354 10.4487 8.65663 10.4232 8.38196 10.4846C7.41121 10.6685 6.48097 11.0237 5.63473 11.5336C4.81573 12.0386 3.94497 12.4544 3.03736 12.7739H2.80426C2.52021 12.7943 2.2353 12.7487 1.97178 12.6408C1.57173 12.5166 1.18429 12.3549 0.814614 12.1579C0.781816 12.1377 0.745357 12.1241 0.707316 12.118C0.669276 12.1119 0.630399 12.1133 0.592908 12.1222C0.555415 12.1311 0.520041 12.1473 0.488804 12.1699C0.457568 12.1924 0.431081 12.2209 0.410856 12.2537C0.390631 12.2864 0.377064 12.3229 0.37093 12.3609C0.364795 12.399 0.366214 12.4379 0.375104 12.4754C0.383994 12.5129 0.400181 12.5483 0.422742 12.5794C0.445303 12.6107 0.473795 12.6372 0.506593 12.6574C0.920126 12.925 1.35768 13.1536 1.8136 13.3401C2.1346 13.4649 2.47653 13.527 2.82091 13.5232H2.92913C3.15648 13.4919 3.37977 13.436 3.59513 13.3567C4.43714 13.0451 5.25282 12.6665 6.03432 12.2245C6.70202 11.8544 7.41585 11.5744 8.15717 11.392C8.59838 11.3004 8.98962 11.2422 9.17279 11.5502C9.25896 11.6693 9.31196 11.809 9.32663 11.9553C9.34121 12.1014 9.31688 12.2489 9.25604 12.3827C8.96471 12.9488 8.10722 13.3567 7.2664 14.2808C6.64203 14.9718 6.71696 15.4795 7.03331 15.8542C7.51688 16.256 8.08665 16.5409 8.69829 16.6867C9.08488 16.8098 9.48429 16.888 9.88871 16.9198C10.4624 16.9612 11.0383 16.9612 11.612 16.9198C12.1694 16.8964 12.7251 16.8436 13.277 16.7616C14.2593 16.6118 15.0585 16.4119 15.633 16.3454C15.9742 16.2659 16.3231 16.2241 16.6735 16.2204C16.7803 16.2357 16.8804 16.2815 16.9616 16.3524C17.043 16.4234 17.1019 16.5164 17.1314 16.6201C17.2313 16.8365 17.1314 17.0197 16.9316 17.1945C16.5122 17.5725 16.0413 17.8893 15.533 18.1352C14.224 18.7988 12.7798 19.152 11.3123 19.1675C9.04204 19.2279 6.77672 18.9244 4.60244 18.2684C4.55598 18.2568 4.50738 18.2568 4.46092 18.2684L0.698065 18.9178C0.664094 18.9231 0.631532 18.9351 0.602289 18.9532C0.573046 18.9714 0.547714 18.9951 0.527779 19.0231C0.507845 19.0511 0.493711 19.0829 0.486207 19.1164C0.478704 19.1499 0.477981 19.1847 0.484084 19.2185C0.490186 19.2524 0.502989 19.2846 0.521742 19.3134C0.540494 19.3423 0.564818 19.367 0.593283 19.3864C0.621749 19.4056 0.653782 19.419 0.687501 19.4258C0.721221 19.4325 0.755947 19.4324 0.789639 19.4255L4.47757 18.8844C6.68943 19.6221 9.00563 19.9988 11.3373 19.9999C12.954 20.0048 14.5499 19.6344 15.9992 18.9178C16.7191 18.5799 17.3622 18.0983 17.889 17.5025C18.03 17.3124 18.1187 17.0885 18.1465 16.8534C18.1742 16.6183 18.14 16.38 18.0471 16.1622C17.9672 15.9564 17.843 15.7707 17.6833 15.6182C17.5236 15.4657 17.3324 15.3502 17.123 15.2798ZM15.533 15.3297C14.9503 15.3963 14.1428 15.5961 13.1438 15.7459C12.631 15.828 12.114 15.8809 11.5954 15.9041H11.2124C11.6536 15.7127 12.1365 15.5045 12.4695 15.338C12.8025 15.1715 13.0023 15.03 13.302 14.8136C13.6871 14.5739 14.0875 14.3599 14.5007 14.1725C14.6666 14.0584 14.8569 13.9846 15.0564 13.9571C15.2559 13.9297 15.459 13.9493 15.6495 14.0144C15.7731 14.0712 15.8835 14.1531 15.9739 14.2549C16.0641 14.3566 16.1323 14.476 16.174 14.6054C16.2283 14.8241 16.2283 15.0528 16.174 15.2714L15.533 15.3297Z" fill="black"/>
<path fill-rule="evenodd" clip-rule="evenodd" d="M17.9473 1.54367C17.1602 0.915475 16.248 0.462745 15.2716 0.215796C14.2953 -0.0311526 13.2775 -0.0666134 12.2864 0.111789C11.3917 0.277987 10.5623 0.693611 9.89353 1.31076C9.22487 1.9279 8.7442 2.72144 8.50687 3.59992C7.99434 5.29867 8.16768 7.13061 8.9897 8.70308C9.43145 9.39458 10.0228 9.978 10.7202 10.4103C11.4176 10.8425 12.2032 11.1126 13.019 11.2006C14.6197 11.4963 16.2725 11.1525 17.6226 10.2432C17.6545 10.2215 17.6818 10.1937 17.7029 10.1613C17.724 10.129 17.7384 10.0928 17.7454 10.0549C17.7524 10.0169 17.7517 9.978 17.7435 9.94025C17.7353 9.90258 17.7197 9.86692 17.6975 9.83525C17.6511 9.77392 17.5829 9.73275 17.507 9.72042C17.431 9.708 17.3532 9.72525 17.2896 9.76867C16.05 10.5444 14.5572 10.8072 13.1272 10.5013C12.4398 10.4131 11.7803 10.1741 11.196 9.80133C10.6117 9.42858 10.117 8.93133 9.74728 8.34508C9.0797 6.97203 8.96928 5.39388 9.43928 3.94124C9.61987 3.22433 10.0006 2.57359 10.5372 2.06503C11.0738 1.55646 11.744 1.21105 12.4695 1.06915C13.3318 0.886025 14.2232 0.888558 15.0845 1.07659C15.9456 1.26463 16.757 1.63385 17.4645 2.15971C18.5467 3.07545 19.221 4.59891 18.9713 6.98815C18.933 7.3489 18.852 7.70382 18.7299 8.04541C18.6106 8.38442 18.4423 8.70417 18.2304 8.99442C18.1901 9.04875 18.1729 9.11667 18.1822 9.18367C18.1915 9.25058 18.2268 9.31117 18.2803 9.35242C18.3068 9.37342 18.3373 9.38883 18.3699 9.39767C18.4025 9.40658 18.4365 9.40875 18.47 9.40408C18.5035 9.39942 18.5356 9.388 18.5645 9.3705C18.5935 9.35308 18.6185 9.32992 18.6383 9.3025C18.8916 8.98183 19.0965 8.62558 19.246 8.24521C19.3954 7.86484 19.4988 7.46798 19.554 7.06308C19.887 4.37413 19.1294 2.62591 17.9473 1.54367Z" fill="black"/>
<path fill-rule="evenodd" clip-rule="evenodd" d="M14.2843 5.64783V5.23159C14.2094 4.50732 14.0429 3.56661 14.0179 3.33351C14.0179 3.26506 13.9907 3.19942 13.9423 3.15103C13.8939 3.10263 13.8282 3.07544 13.7598 3.07544C13.6914 3.07544 13.6257 3.10263 13.5773 3.15103C13.529 3.19942 13.5017 3.26506 13.5017 3.33351C13.5017 3.55828 13.3602 4.52397 13.3269 5.26489V6.09737C13.3304 6.21655 13.377 6.3304 13.4582 6.41771C13.5394 6.50501 13.6496 6.55982 13.7682 6.5719H14.7505C15.3166 6.5719 15.7328 6.5719 16.224 6.52195C16.3007 6.52206 16.3745 6.49278 16.4302 6.44013C16.486 6.38748 16.5194 6.31546 16.5237 6.2389C16.5248 6.20063 16.5183 6.16252 16.5047 6.12675C16.4911 6.09096 16.4706 6.05823 16.4442 6.0304C16.418 6.00256 16.3865 5.98018 16.3516 5.96454C16.3166 5.94889 16.2789 5.94028 16.2407 5.93921L14.2843 5.64783Z" fill="black"/>
</g>
<defs>
<clipPath id="clip0_598_1973">
<rect width="20" height="20" fill="white"/>
</clipPath>
</defs>
</svg>
