<svg xmlns="http://www.w3.org/2000/svg" width="70" height="70" viewBox="0 0 32 32" id="idea">
  <g>
    <g>
      <path d="M2 26.5H12a.5.5 0 000-1H2.5V25a.5.5 0 00-1 0v1A.49971.49971 0 002 26.5zM2 21.5a.49971.49971 0 00.5-.5V20A3.49426 3.49426 0 016 16.5H7.69092l.86181 1.72363a.50005.50005 0 00.72461.19239L12 16.60089 14.72266 18.416a.49975.49975 0 00.72461-.19239L16.30908 16.5H18a3.47941 3.47941 0 012.47461 1.02441 3.51961 3.51961 0 01.55615.72559.50008.50008 0 10.86621-.5 4.51829 4.51829 0 00-.71484-.93213A4.47176 4.47176 0 0018 15.5H16.3092l-.861-1.72363a.49975.49975 0 00-.72461-.19239L12 15.39917 9.27637 13.584a.494.494 0 00-.40576-.06738.50147.50147 0 00-.31885.25977L7.6908 15.5H6A4.49452 4.49452 0 001.5 20v1A.49971.49971 0 002 21.5zm12.80664-6.76953L15.44092 16l-.63477 1.27L12.90137 16zm-5.61328 0L11.09863 16 9.19385 17.27 8.55908 16zM12 1.5A5.5 5.5 0 1017.5 7 5.50623 5.50623 0 0012 1.5zm0 10A4.5 4.5 0 1116.5 7 4.50491 4.50491 0 0112 11.5zM22 19.5a4.487 4.487 0 00-2.5 8.22168V28a.49971.49971 0 00.5.5h4a.49971.49971 0 00.5-.5v-.27832A4.487 4.487 0 0022 19.5zm1.74854 7.51318a.49964.49964 0 00-.24854.43213V27.5h-3v-.05469a.49964.49964 0 00-.24854-.43213A3.46183 3.46183 0 0118.5 24a3.5 3.5 0 017 0A3.46183 3.46183 0 0123.74854 27.01318zM23 30.5a.5.5 0 000-1H21a.5.5 0 000 1zM30 23.5H28a.5.5 0 000 1h2a.5.5 0 000-1zM27.19678 21.5a.49721.49721 0 00.24951-.06689l1.73193-1a.50008.50008 0 10-.5-.86622l-1.73193 1a.5.5 0 00.25049.93311z"></path>
      <path d="M17.05371 20.56689l-1.73193-1a.50008.50008 0 00-.5.86622l1.73193 1a.50008.50008 0 10.5-.86622zM13.5 24a.49971.49971 0 00.5.5h2a.5.5 0 000-1H14A.49971.49971 0 0013.5 24zM16.55371 26.56689l-1.73193 1a.50008.50008 0 00.5.86622l1.73193-1a.50008.50008 0 10-.5-.86622zM26.94629 27.43311l1.73193 1a.50008.50008 0 00.5-.86622l-1.73193-1a.50008.50008 0 10-.5.86622z"></path>
      <circle cx="2" cy="23" r=".5"></circle>
    </g>
  </g>
</svg>
