<svg xmlns="http://www.w3.org/2000/svg" width="100" height="100" viewBox="0 0 100 100">
  <!-- Background Circle -->
  <circle cx="50" cy="50" r="45" fill="#f0f4f8" stroke="#6c757d" stroke-width="2" />
  
  <!-- Heart Symbol -->
  <path d="M50,65 C50,65 35,50 30,45 C25,40 25,30 35,25 C45,20 50,35 50,35 C50,35 55,20 65,25 C75,30 75,40 70,45 C65,50 50,65 50,65 Z" fill="#6c757d" />
  
  <!-- Leaf Symbol -->
  <path d="M60,55 C70,45 75,35 75,35 C75,35 65,40 55,50 C45,60 45,70 45,70 C45,70 50,65 60,55 Z" fill="#6c757d" />
</svg> 