<svg xmlns="http://www.w3.org/2000/svg" viewBox="0 0 100 100" width="100" height="100">
  <!-- Background circle -->
  <circle cx="50" cy="50" r="48" fill="#e8f8f5" stroke="#16a085" stroke-width="2"/>
  
  <!-- Face -->
  <circle cx="50" cy="40" r="20" fill="#f5d6a7"/>
  
  <!-- Hair -->
  <path d="M30 35c0-11 9-20 20-20s20 9 20 20c0 0-5-10-20-10s-20 10-20 10z" fill="#7f8c8d"/>
  <path d="M30 35c0 0 5 5 5 0s-5-10 0-10 10 0 10 0" fill="#7f8c8d"/>
  
  <!-- Glasses -->
  <circle cx="42" cy="38" r="5" fill="none" stroke="#333" stroke-width="1"/>
  <circle cx="58" cy="38" r="5" fill="none" stroke="#333" stroke-width="1"/>
  <line x1="47" y1="38" x2="53" y2="38" stroke="#333" stroke-width="1"/>
  
  <!-- Eyes -->
  <circle cx="42" cy="38" r="2" fill="#333"/>
  <circle cx="58" cy="38" r="2" fill="#333"/>
  
  <!-- Smile -->
  <path d="M40 48c0 0 5 5 10 5s10-5 10-5" fill="none" stroke="#333" stroke-width="1.5" stroke-linecap="round"/>
  
  <!-- Suit -->
  <path d="M30 75v-15c0 0 5-10 20-10s20 10 20 10v15" fill="#16a085"/>
  
  <!-- Dollar sign tie -->
  <path d="M50 50v25" fill="none" stroke="#2c3e50" stroke-width="3"/>
  <path d="M47 55c3-1 6-1 6 1s-6 3-6 1M47 65c3-1 6-1 6 1s-6 3-6 1" fill="none" stroke="#2c3e50" stroke-width="1.5"/>
  
  <!-- Financial chart -->
  <rect x="30" y="80" width="40" height="15" rx="2" fill="#ecf0f1"/>
  <path d="M35 85l5 5 5-3 5 3 5-7 10 2" fill="none" stroke="#e74c3c" stroke-width="1.5"/>
  <path d="M35 90l5-2 5 1 5-1 5 2 10-3" fill="none" stroke="#3498db" stroke-width="1.5"/>
</svg> 