<svg xmlns="http://www.w3.org/2000/svg" viewBox="0 0 100 100" width="100" height="100">
  <!-- Background circle with premium gradient -->
  <defs>
    <linearGradient id="premiumGradient" x1="0%" y1="0%" x2="100%" y2="100%">
      <stop offset="0%" stop-color="#e8f8f5" />
      <stop offset="100%" stop-color="#d0ece7" />
    </linearGradient>
  </defs>
  
  <circle cx="50" cy="50" r="48" fill="url(#premiumGradient)" stroke="#ffd700" stroke-width="3"/>
  
  <!-- Crown to indicate premium -->
  <path d="M30 25l5 10 10-5 5 12 5-12 10 5 5-10-5 15h-30z" fill="#ffd700" stroke="#e6b800" stroke-width="1"/>
  
  <!-- Face -->
  <circle cx="50" cy="40" r="20" fill="#f5d6a7"/>
  
  <!-- Hair -->
  <path d="M30 35c0-11 9-20 20-20s20 9 20 20c0 0-5-10-20-10s-20 10-20 10z" fill="#34495e"/>
  <path d="M30 35c0 0 5 5 5 0s-5-10 0-10 10 0 10 0" fill="#34495e"/>
  
  <!-- Premium glasses -->
  <circle cx="42" cy="38" r="5" fill="none" stroke="#ffd700" stroke-width="1.5"/>
  <circle cx="58" cy="38" r="5" fill="none" stroke="#ffd700" stroke-width="1.5"/>
  <line x1="47" y1="38" x2="53" y2="38" stroke="#ffd700" stroke-width="1.5"/>
  
  <!-- Eyes -->
  <circle cx="42" cy="38" r="2" fill="#333"/>
  <circle cx="58" cy="38" r="2" fill="#333"/>
  
  <!-- Smile -->
  <path d="M40 48c0 0 5 5 10 5s10-5 10-5" fill="none" stroke="#333" stroke-width="1.5" stroke-linecap="round"/>
  
  <!-- Premium suit -->
  <path d="M30 75v-15c0 0 5-10 20-10s20 10 20 10v15" fill="#0e6655"/>
  
  <!-- Gold dollar sign tie -->
  <path d="M50 50v25" fill="none" stroke="#ffd700" stroke-width="3"/>
  <path d="M47 55c3-1 6-1 6 1s-6 3-6 1M47 65c3-1 6-1 6 1s-6 3-6 1" fill="none" stroke="#ffd700" stroke-width="1.5"/>
  
  <!-- Premium financial chart -->
  <rect x="30" y="80" width="40" height="15" rx="2" fill="#2c3e50"/>
  <path d="M35 85l5 5 5-3 5 3 5-7 10 2" fill="none" stroke="#ffd700" stroke-width="1.5"/>
  <path d="M35 90l5-2 5 1 5-1 5 2 10-3" fill="none" stroke="#3498db" stroke-width="1.5"/>
  
  <!-- Gold coins -->
  <circle cx="75" cy="85" r="5" fill="#ffd700" stroke="#e6b800" stroke-width="1"/>
  <circle cx="75" cy="85" r="2" fill="#e6b800"/>
  <circle cx="75" cy="92" r="5" fill="#ffd700" stroke="#e6b800" stroke-width="1"/>
  <circle cx="75" cy="92" r="2" fill="#e6b800"/>
</svg> 