<svg xmlns="http://www.w3.org/2000/svg" viewBox="0 0 100 100" width="100" height="100">
  <!-- Background circle -->
  <circle cx="50" cy="50" r="48" fill="#fce4ec" stroke="#e91e63" stroke-width="2"/>
  
  <!-- Face -->
  <circle cx="50" cy="40" r="20" fill="#f5d6a7"/>
  
  <!-- Hair -->
  <path d="M30 35c0-11 9-20 20-20s20 9 20 20c0 0-5-10-20-10s-20 10-20 10z" fill="#4a2700"/>
  <path d="M70 35c0 0-5 10-5 15s5 10 5 5 0-10 0-10" fill="#4a2700"/>
  
  <!-- Eyes -->
  <circle cx="42" cy="38" r="3" fill="#333"/>
  <circle cx="58" cy="38" r="3" fill="#333"/>
  
  <!-- Smile -->
  <path d="M40 48c0 0 5 5 10 5s10-5 10-5" fill="none" stroke="#333" stroke-width="2" stroke-linecap="round"/>
  
  <!-- Body -->
  <path d="M30 75v-15c0 0 5-10 20-10s20 10 20 10v15" fill="#ad1457"/>
  
  <!-- Heart symbol -->
  <path d="M50 75l-10-10c-5-5 0-10 5-5l5 5 5-5c5-5 10 0 5 5z" fill="#e91e63"/>
  
  <!-- Conversation bubbles -->
  <circle cx="35" cy="85" r="8" fill="#f8bbd0"/>
  <circle cx="65" cy="85" r="8" fill="#f8bbd0"/>
  <path d="M35 80l5 2M65 80l-5 2" fill="none" stroke="#ad1457" stroke-width="1"/>
</svg> 