<svg xmlns="http://www.w3.org/2000/svg" width="100" height="100" viewBox="0 0 100 100">
  <!-- Background Circle with Gradient -->
  <defs>
    <linearGradient id="grad1" x1="0%" y1="0%" x2="100%" y2="100%">
      <stop offset="0%" style="stop-color:#e6f7ff;stop-opacity:1" />
      <stop offset="100%" style="stop-color:#bae7ff;stop-opacity:1" />
    </linearGradient>
  </defs>
  <circle cx="50" cy="50" r="45" fill="url(#grad1)" stroke="#1890ff" stroke-width="3" />
  
  <!-- Moon Symbol -->
  <path d="M65,50 A15,15 0 1,1 65,49.9" fill="none" stroke="#1890ff" stroke-width="2" />
  
  <!-- Star Symbol -->
  <polygon points="50,30 53,40 63,40 55,46 58,56 50,50 42,56 45,46 37,40 47,40" fill="#1890ff" />
  
  <!-- Small Stars -->
  <circle cx="30" cy="35" r="2" fill="#1890ff" />
  <circle cx="70" cy="65" r="2" fill="#1890ff" />
  <circle cx="35" cy="70" r="2" fill="#1890ff" />
  <circle cx="65" cy="30" r="2" fill="#1890ff" />
  
  <!-- Premium Star -->
  <polygon points="85,15 88,22 95,23 90,28 91,35 85,32 79,35 80,28 75,23 82,22" fill="#ffd700" stroke="#ff8c00" stroke-width="1" />
</svg> 