<svg xmlns="http://www.w3.org/2000/svg" viewBox="0 0 100 100" width="100" height="100">
  <!-- Background circle -->
  <circle cx="50" cy="50" r="48" fill="#e6f2ff" stroke="#2980b9" stroke-width="2"/>
  
  <!-- Face -->
  <circle cx="50" cy="45" r="20" fill="#f5d6a7"/>
  
  <!-- Hair -->
  <path d="M30 40c0-11 9-20 20-20s20 9 20 20c0 0-5-10-20-10s-20 10-20 10z" fill="#6d4c41"/>
  
  <!-- Eyes -->
  <circle cx="42" cy="42" r="3" fill="#333"/>
  <circle cx="58" cy="42" r="3" fill="#333"/>
  
  <!-- Smile -->
  <path d="M40 52c0 0 5 5 10 5s10-5 10-5" fill="none" stroke="#333" stroke-width="2" stroke-linecap="round"/>
  
  <!-- Suit -->
  <path d="M30 75v-15c0 0 5-10 20-10s20 10 20 10v15" fill="#2980b9"/>
  
  <!-- Tie -->
  <path d="M50 50v25M45 50l5 5 5-5M45 75l5-5 5 5" fill="none" stroke="#e74c3c" stroke-width="3"/>
  
  <!-- Briefcase -->
  <rect x="35" y="80" width="30" height="20" rx="2" fill="#7f8c8d"/>
  <rect x="48" y="80" width="4" height="2" fill="#7f8c8d"/>
  <rect x="45" y="75" width="10" height="5" fill="#7f8c8d"/>
</svg> 