<svg xmlns="http://www.w3.org/2000/svg" viewBox="0 0 100 100" width="100" height="100">
  <!-- Background circle with premium gradient -->
  <defs>
    <linearGradient id="premiumGradient" x1="0%" y1="0%" x2="100%" y2="100%">
      <stop offset="0%" stop-color="#e6f2ff" />
      <stop offset="100%" stop-color="#c9d6ff" />
    </linearGradient>
  </defs>
  
  <circle cx="50" cy="50" r="48" fill="url(#premiumGradient)" stroke="#ffd700" stroke-width="3"/>
  
  <!-- Crown to indicate premium -->
  <path d="M30 25l5 10 10-5 5 12 5-12 10 5 5-10-5 15h-30z" fill="#ffd700" stroke="#e6b800" stroke-width="1"/>
  
  <!-- Face -->
  <circle cx="50" cy="45" r="20" fill="#f5d6a7"/>
  
  <!-- Hair -->
  <path d="M30 40c0-11 9-20 20-20s20 9 20 20c0 0-5-10-20-10s-20 10-20 10z" fill="#4a2700"/>
  
  <!-- Eyes -->
  <circle cx="42" cy="42" r="3" fill="#333"/>
  <circle cx="58" cy="42" r="3" fill="#333"/>
  
  <!-- Smile -->
  <path d="M40 52c0 0 5 5 10 5s10-5 10-5" fill="none" stroke="#333" stroke-width="2" stroke-linecap="round"/>
  
  <!-- Suit (premium navy) -->
  <path d="M30 75v-15c0 0 5-10 20-10s20 10 20 10v15" fill="#1a5276"/>
  
  <!-- Gold tie -->
  <path d="M50 50v25M45 50l5 5 5-5M45 75l5-5 5 5" fill="none" stroke="#ffd700" stroke-width="3"/>
  
  <!-- Premium briefcase -->
  <rect x="35" y="80" width="30" height="20" rx="2" fill="#34495e"/>
  <rect x="48" y="80" width="4" height="2" fill="#34495e"/>
  <rect x="45" y="75" width="10" height="5" fill="#34495e"/>
  
  <!-- Gold briefcase accents -->
  <rect x="37" y="85" width="26" height="2" fill="#ffd700"/>
  <rect x="37" y="90" width="26" height="2" fill="#ffd700"/>
</svg> 