<svg xmlns="http://www.w3.org/2000/svg" width="100" height="100" viewBox="0 0 100 100">
  <!-- Background Circle with Gradient -->
  <defs>
    <linearGradient id="grad1" x1="0%" y1="0%" x2="100%" y2="100%">
      <stop offset="0%" style="stop-color:#e6f7ff;stop-opacity:1" />
      <stop offset="100%" style="stop-color:#bae7ff;stop-opacity:1" />
    </linearGradient>
  </defs>
  <circle cx="50" cy="50" r="45" fill="url(#grad1)" stroke="#1890ff" stroke-width="3" />
  
  <!-- Lightbulb Symbol -->
  <path d="M50,25 C40,25 35,35 35,45 C35,55 45,60 45,65 L55,65 C55,60 65,55 65,45 C65,35 60,25 50,25 Z" fill="none" stroke="#1890ff" stroke-width="2" />
  <rect x="45" y="65" width="10" height="5" fill="#1890ff" />
  <rect x="47" y="70" width="6" height="5" fill="#1890ff" />
  
  <!-- Idea Sparks -->
  <line x1="35" y1="35" x2="30" y2="30" stroke="#1890ff" stroke-width="2" />
  <line x1="65" y1="35" x2="70" y2="30" stroke="#1890ff" stroke-width="2" />
  <line x1="50" y1="25" x2="50" y2="20" stroke="#1890ff" stroke-width="2" />
  
  <!-- Premium Star -->
  <polygon points="85,15 88,22 95,23 90,28 91,35 85,32 79,35 80,28 75,23 82,22" fill="#ffd700" stroke="#ff8c00" stroke-width="1" />
</svg> 