<svg xmlns="http://www.w3.org/2000/svg" viewBox="0 0 100 100" width="100" height="100">
  <!-- Background circle -->
  <circle cx="50" cy="50" r="48" fill="#f0f0f0" stroke="#3498db" stroke-width="2"/>
  
  <!-- Face -->
  <circle cx="50" cy="40" r="20" fill="#f5d6a7"/>
  
  <!-- Hair -->
  <path d="M30 35c0-11 9-20 20-20s20 9 20 20c0 0-5-10-20-10s-20 10-20 10z" fill="#6d4c41"/>
  
  <!-- Eyes -->
  <circle cx="42" cy="38" r="3" fill="#333"/>
  <circle cx="58" cy="38" r="3" fill="#333"/>
  
  <!-- Smile -->
  <path d="M40 48c0 0 5 5 10 5s10-5 10-5" fill="none" stroke="#333" stroke-width="2" stroke-linecap="round"/>
  
  <!-- Body -->
  <path d="M30 75v-15c0 0 5-10 20-10s20 10 20 10v15" fill="#3498db"/>
  
  <!-- Collar -->
  <path d="M45 55l5-5 5 5" fill="#f0f0f0"/>
  
  <!-- Brain icon to represent mentor -->
  <ellipse cx="50" cy="80" rx="15" ry="10" fill="#e74c3c"/>
  <path d="M45 75c0 0 0 5 5 5s5-5 5-5" fill="none" stroke="#f0f0f0" stroke-width="1.5"/>
  <path d="M40 80c0 0 5 5 10 0s10 0 10 0" fill="none" stroke="#f0f0f0" stroke-width="1.5"/>
</svg> 