<svg xmlns="http://www.w3.org/2000/svg" viewBox="0 0 100 100" width="100" height="100">
  <!-- Background circle with premium gradient -->
  <defs>
    <linearGradient id="premiumGradient" x1="0%" y1="0%" x2="100%" y2="100%">
      <stop offset="0%" stop-color="#e8f5e9" />
      <stop offset="100%" stop-color="#c8e6c9" />
    </linearGradient>
  </defs>
  
  <circle cx="50" cy="50" r="48" fill="url(#premiumGradient)" stroke="#ffd700" stroke-width="3"/>
  
  <!-- Crown to indicate premium -->
  <path d="M30 25l5 10 10-5 5 12 5-12 10 5 5-10-5 15h-30z" fill="#ffd700" stroke="#e6b800" stroke-width="1"/>
  
  <!-- Face -->
  <circle cx="50" cy="40" r="20" fill="#f5d6a7"/>
  
  <!-- Hair -->
  <path d="M30 35c0-11 9-20 20-20s20 9 20 20c0 0-5-10-20-10s-20 10-20 10z" fill="#5d4037"/>
  
  <!-- Eyes -->
  <circle cx="42" cy="38" r="3" fill="#333"/>
  <circle cx="58" cy="38" r="3" fill="#333"/>
  
  <!-- Smile -->
  <path d="M40 48c0 0 5 5 10 5s10-5 10-5" fill="none" stroke="#333" stroke-width="2" stroke-linecap="round"/>
  
  <!-- Premium body -->
  <path d="M30 75v-15c0 0 5-10 20-10s20 10 20 10v15" fill="#2e7d32"/>
  
  <!-- Premium clock -->
  <circle cx="50" cy="80" r="12" fill="#1b5e20" stroke="#ffd700" stroke-width="2"/>
  <circle cx="50" cy="80" r="1" fill="#ffd700"/>
  <line x1="50" y1="80" x2="50" y2="72" stroke="#ffd700" stroke-width="2" stroke-linecap="round"/>
  <line x1="50" y1="80" x2="56" y2="83" stroke="#ffd700" stroke-width="2" stroke-linecap="round"/>
  
  <!-- Premium clock markings -->
  <line x1="50" y1="68" x2="50" y2="70" stroke="#ffd700" stroke-width="1"/>
  <line x1="50" y1="90" x2="50" y2="92" stroke="#ffd700" stroke-width="1"/>
  <line x1="38" y1="80" x2="40" y2="80" stroke="#ffd700" stroke-width="1"/>
  <line x1="60" y1="80" x2="62" y2="80" stroke="#ffd700" stroke-width="1"/>
  
  <!-- Calendar -->
  <rect x="70" y="75" width="15" height="15" rx="2" fill="#fff" stroke="#ffd700" stroke-width="1"/>
  <line x1="70" y1="80" x2="85" y2="80" stroke="#ffd700" stroke-width="1"/>
  <line x1="75" y1="75" x2="75" y2="78" stroke="#ffd700" stroke-width="1"/>
  <line x1="80" y1="75" x2="80" y2="78" stroke="#ffd700" stroke-width="1"/>
  <circle cx="75" cy="85" r="2" fill="#ffd700"/>
  <circle cx="80" cy="85" r="2" fill="#ffd700"/>
</svg> 